<svg width="24" height="25" viewBox="0 0 24 25" fill="none" xmlns="http://www.w3.org/2000/svg">
<g clip-path="url(#clip0_138_516)">
<path d="M12.0003 16.4228C11.7666 16.4232 11.5402 16.3418 11.3603 16.1928L5.36028 11.1928C5.15606 11.023 5.02763 10.7791 5.00325 10.5147C4.97888 10.2503 5.06054 9.98698 5.23028 9.78276C5.40001 9.57854 5.64393 9.45012 5.90835 9.42574C6.17278 9.40136 6.43606 9.48302 6.64028 9.65276L12.0003 14.1328L17.3603 9.81276C17.4626 9.7297 17.5803 9.66766 17.7066 9.63023C17.8329 9.5928 17.9654 9.58071 18.0965 9.59465C18.2275 9.60858 18.3545 9.64828 18.4701 9.71146C18.5857 9.77463 18.6878 9.86003 18.7703 9.96276C18.8619 10.0656 18.9312 10.1862 18.974 10.3171C19.0168 10.448 19.0321 10.5863 19.019 10.7233C19.0058 10.8604 18.9645 10.9933 18.8976 11.1136C18.8307 11.234 18.7397 11.3392 18.6303 11.4228L12.6303 16.2528C12.4452 16.3783 12.2234 16.4381 12.0003 16.4228Z" fill="#272727"/>
</g>
<defs>
<clipPath id="clip0_138_516">
<rect width="24" height="24" fill="white" transform="translate(0 0.422791)"/>
</clipPath>
</defs>
</svg>
