<svg width="16" height="16" viewBox="0 0 16 16" fill="none" xmlns="http://www.w3.org/2000/svg">
<g clip-path="url(#clip0_38_3489)">
<path d="M10.6667 7.99998C10.667 8.15575 10.6127 8.3067 10.5133 8.42665L7.18001 12.4266C7.06685 12.5628 6.90424 12.6484 6.72796 12.6647C6.55168 12.6809 6.37616 12.6265 6.24001 12.5133C6.10387 12.4002 6.01825 12.2375 6.002 12.0613C5.98574 11.885 6.04018 11.7095 6.15334 11.5733L9.14001 7.99998L6.26001 4.42665C6.20463 4.35845 6.16328 4.27999 6.13832 4.19576C6.11337 4.11154 6.10531 4.02321 6.1146 3.93586C6.12389 3.84851 6.15036 3.76385 6.19247 3.68676C6.23459 3.60967 6.29153 3.54166 6.36001 3.48664C6.42856 3.42559 6.50898 3.37935 6.59622 3.35082C6.68347 3.3223 6.77567 3.31209 6.86705 3.32086C6.95843 3.32962 7.04701 3.35715 7.12724 3.40174C7.20748 3.44633 7.27765 3.50701 7.33334 3.57998L10.5533 7.57998C10.637 7.70337 10.6769 7.85124 10.6667 7.99998Z" fill="white"/>
</g>
<defs>
<clipPath id="clip0_38_3489">
<rect width="16" height="16" fill="white" transform="translate(0 16) rotate(-90)"/>
</clipPath>
</defs>
</svg>
