<svg width="16" height="17" viewBox="0 0 16 17" fill="none" xmlns="http://www.w3.org/2000/svg">
<path d="M8.00002 11.0895C7.84425 11.0898 7.6933 11.0355 7.57335 10.9362L3.57335 7.60282C3.43721 7.48966 3.35159 7.32705 3.33534 7.15077C3.31909 6.97448 3.37353 6.79896 3.48669 6.66282C3.59985 6.52667 3.76245 6.44106 3.93874 6.4248C4.11502 6.40855 4.29054 6.46299 4.42669 6.57615L8.00002 9.56282L11.5734 6.68282C11.6415 6.62744 11.72 6.58609 11.8042 6.56113C11.8885 6.53618 11.9768 6.52811 12.0641 6.53741C12.1515 6.5467 12.2361 6.57316 12.3132 6.61528C12.3903 6.6574 12.4583 6.71433 12.5134 6.78282C12.5744 6.85136 12.6206 6.93178 12.6492 7.01903C12.6777 7.10628 12.6879 7.19848 12.6791 7.28986C12.6704 7.38123 12.6428 7.46981 12.5983 7.55005C12.5537 7.63029 12.493 7.70045 12.42 7.75615L8.42002 10.9762C8.29663 11.0598 8.14876 11.0997 8.00002 11.0895Z" fill="#272727"/>
</svg>
