<svg width="24" height="24" viewBox="0 0 24 24" fill="none" xmlns="http://www.w3.org/2000/svg">
<path d="M4.31992 1.91998C3.00015 1.91998 1.91992 3.00022 1.91992 4.31998V19.68C1.91992 20.9998 3.00015 22.08 4.31992 22.08H12.3993C12.4511 22.0886 12.504 22.0886 12.5559 22.08H15.2793C15.3311 22.0886 15.384 22.0886 15.4359 22.08H19.6799C20.9997 22.08 22.0799 20.9998 22.0799 19.68V4.31998C22.0799 3.00022 20.9997 1.91998 19.6799 1.91998H4.31992ZM4.31992 2.87998H19.6799C20.4808 2.87998 21.1199 3.51911 21.1199 4.31998V19.68C21.1199 20.4809 20.4808 21.12 19.6799 21.12H15.8399V14.4H17.6737L18.3459 11.04H15.8399V10.08C15.8399 9.81239 15.8654 9.79147 15.9552 9.73311C16.0451 9.67475 16.3227 9.59998 16.7999 9.59998H18.2399V6.89717L17.9662 6.76686C17.9662 6.76686 16.8636 6.23998 15.3599 6.23998C14.2799 6.23998 13.3927 6.67028 12.8249 7.37998C12.2572 8.08969 11.9999 9.03998 11.9999 10.08V11.04H10.5599V14.4H11.9999V21.12H4.31992C3.51905 21.12 2.87992 20.4809 2.87992 19.68V4.31998C2.87992 3.51911 3.51905 2.87998 4.31992 2.87998ZM15.3599 7.19998C16.3579 7.19998 16.9859 7.42004 17.2799 7.53655V8.63998H16.7999C16.2475 8.63998 15.8049 8.68568 15.4321 8.9278C15.0594 9.16991 14.8799 9.6295 14.8799 10.08V12H17.174L16.8862 13.44H14.8799V21.12H12.9599V13.44H11.5199V12H12.9599V10.08C12.9599 9.19998 13.1827 8.47028 13.5749 7.97998C13.9672 7.48969 14.5199 7.19998 15.3599 7.19998Z" />
</svg>
