<svg width="24" height="24" viewBox="0 0 24 24" fill="none" xmlns="http://www.w3.org/2000/svg">
<path d="M7.68043 1.44C4.24002 1.44 1.44043 4.23959 1.44043 7.68V16.32C1.44043 19.7604 4.24002 22.56 7.68043 22.56H16.3204C19.7608 22.56 22.5604 19.7604 22.5604 16.32V7.68C22.5604 4.23959 19.7608 1.44 16.3204 1.44H7.68043ZM7.68043 2.4H16.3204C19.2419 2.4 21.6004 4.75849 21.6004 7.68V16.32C21.6004 19.2415 19.2419 21.6 16.3204 21.6H7.68043C4.75892 21.6 2.40043 19.2415 2.40043 16.32V7.68C2.40043 4.75849 4.75892 2.4 7.68043 2.4ZM17.7604 5.28C17.5058 5.28 17.2616 5.38115 17.0816 5.56118C16.9016 5.74122 16.8004 5.98539 16.8004 6.24C16.8004 6.49461 16.9016 6.73879 17.0816 6.91883C17.2616 7.09886 17.5058 7.2 17.7604 7.2C18.015 7.2 18.2592 7.09886 18.4393 6.91883C18.6193 6.73879 18.7204 6.49461 18.7204 6.24C18.7204 5.98539 18.6193 5.74122 18.4393 5.56118C18.2592 5.38115 18.015 5.28 17.7604 5.28ZM12.0004 6.72C9.09005 6.72 6.72043 9.08962 6.72043 12C6.72043 14.9104 9.09005 17.28 12.0004 17.28C14.9108 17.28 17.2804 14.9104 17.2804 12C17.2804 9.08962 14.9108 6.72 12.0004 6.72ZM12.0004 7.68C14.392 7.68 16.3204 9.60845 16.3204 12C16.3204 14.3916 14.392 16.32 12.0004 16.32C9.60887 16.32 7.68043 14.3916 7.68043 12C7.68043 9.60845 9.60887 7.68 12.0004 7.68Z" />
</svg>
