<svg width="13" height="14" viewBox="0 0 13 14" fill="none" xmlns="http://www.w3.org/2000/svg">
<g clip-path="url(#clip0_38_3252)">
<path d="M11.9167 12.8395L10.8334 11.7561M6.22921 12.2978C6.90497 12.2978 7.57411 12.1647 8.19843 11.9061C8.82275 11.6475 9.39003 11.2685 9.86786 10.7906C10.3457 10.3128 10.7247 9.74551 10.9833 9.12119C11.2419 8.49687 11.375 7.82773 11.375 7.15197C11.375 6.47621 11.2419 5.80706 10.9833 5.18274C10.7247 4.55842 10.3457 3.99115 9.86786 3.51331C9.39003 3.03548 8.82275 2.65644 8.19843 2.39784C7.57411 2.13923 6.90497 2.00613 6.22921 2.00613C4.86445 2.00613 3.55558 2.54828 2.59055 3.51331C1.62552 4.47834 1.08337 5.78721 1.08337 7.15197C1.08337 8.51673 1.62552 9.82559 2.59055 10.7906C3.55558 11.7557 4.86445 12.2978 6.22921 12.2978V12.2978Z" stroke="#A6A6A6" stroke-width="1.5" stroke-linecap="round" stroke-linejoin="round"/>
</g>
<defs>
<clipPath id="clip0_38_3252">
<rect width="13" height="13" fill="white" transform="translate(0 0.922806)"/>
</clipPath>
</defs>
</svg>
