<svg width="736" height="736" viewBox="0 0 736 736" fill="none" xmlns="http://www.w3.org/2000/svg">
<path d="M616.635 184.618C674.47 231.487 668.921 295.828 619.344 332.51C595.571 350.174 547.716 346.7 520.484 359.109C484.965 375.301 466.933 405.315 439.716 429.279C372.004 488.866 349.924 459.411 272.909 460.191C218.724 460.736 167.204 506.412 112.902 475.044C46.5593 436.772 87.6428 359.978 141.827 330.346C204.049 296.314 164.864 216.384 254.406 157.372C342.461 99.3894 530.744 113.064 616.635 184.618Z" fill="#38a39d"/>
<path opacity="0.9" d="M616.635 184.618C674.47 231.487 668.921 295.828 619.344 332.51C595.571 350.174 547.716 346.7 520.484 359.109C484.965 375.301 466.933 405.315 439.716 429.279C372.004 488.866 349.924 459.411 272.909 460.191C218.724 460.736 167.204 506.412 112.902 475.044C46.5593 436.772 87.6428 359.978 141.827 330.346C204.049 296.314 164.864 216.384 254.406 157.372C342.461 99.3894 530.744 113.064 616.635 184.618Z" fill="white"/>
<path d="M368 629.368C525.625 629.368 653.406 621.908 653.406 612.705C653.406 603.502 525.625 596.042 368 596.042C210.375 596.042 82.5939 603.502 82.5939 612.705C82.5939 621.908 210.375 629.368 368 629.368Z" fill="#F5F5F5"/>
<path d="M127.652 177.597C126.18 171.105 126.828 165.659 129.624 161.213C132.421 156.768 136.984 153.853 143.476 152.381C149.967 150.909 155.576 151.498 159.962 154.236C164.349 156.974 167.322 161.596 168.794 167.926C169.833 171.832 169.919 175.932 169.044 179.878C168.189 183.156 166.38 186.107 163.848 188.357C160.841 190.889 157.231 192.603 153.368 193.332C149.581 194.338 145.615 194.474 141.768 193.73C138.424 192.917 135.4 191.123 133.084 188.578C130.316 185.474 128.439 181.68 127.652 177.597ZM139.928 174.859C140.841 178.863 142.239 181.571 144.124 182.984C145.096 183.633 146.19 184.078 147.339 184.293C148.488 184.508 149.669 184.488 150.81 184.235C151.951 183.982 153.029 183.501 153.98 182.821C154.931 182.14 155.734 181.275 156.341 180.276C157.401 178.23 157.416 174.977 156.415 170.546C155.561 166.807 154.182 164.246 152.278 162.862C151.32 162.174 150.219 161.71 149.058 161.504C147.896 161.297 146.703 161.354 145.566 161.67C144.428 161.883 143.354 162.351 142.423 163.04C141.492 163.728 140.73 164.619 140.193 165.644C139.104 167.808 139.001 170.752 139.928 174.859Z" fill="#151515"/>
<path d="M174.564 172.739C174.042 170.733 173.948 168.639 174.291 166.595C174.633 164.55 175.404 162.601 176.552 160.875C177.839 159.041 179.475 157.479 181.367 156.279C183.259 155.08 185.369 154.265 187.577 153.883C193.337 152.578 198.067 153.26 201.767 155.929C204.881 158.343 206.997 161.817 207.714 165.691C208.431 169.565 207.697 173.567 205.653 176.934C203.357 180.438 199.618 182.773 194.436 183.941C190.445 185.057 186.186 184.713 182.425 182.97C180.414 181.987 178.658 180.552 177.294 178.777C175.93 177.002 174.996 174.935 174.564 172.739ZM185.619 170.193C185.917 172.25 186.921 174.139 188.46 175.536C189.07 175.998 189.773 176.321 190.521 176.484C191.268 176.646 192.042 176.644 192.789 176.477C193.535 176.311 194.237 175.983 194.844 175.518C195.451 175.053 195.95 174.462 196.306 173.784C197.077 171.807 197.149 169.626 196.512 167.602C196.202 165.593 195.209 163.753 193.7 162.391C193.115 161.916 192.428 161.583 191.693 161.417C190.957 161.251 190.194 161.257 189.461 161.434C188.697 161.593 187.98 161.923 187.362 162.4C186.745 162.877 186.245 163.488 185.899 164.187C185.106 166.094 185.007 168.22 185.619 170.193Z" fill="#151515"/>
<path d="M218.71 189.255L209.686 149.511L219.99 147.156L220.962 151.41C221.689 149.713 222.744 148.178 224.068 146.891C225.52 145.658 227.254 144.804 229.117 144.403C230.838 143.935 232.649 143.908 234.383 144.325C236.117 144.742 237.718 145.589 239.038 146.788C241.947 149.507 243.921 153.078 244.676 156.989C245.765 161.773 245.441 165.688 243.734 168.765C242.922 170.236 241.799 171.512 240.444 172.506C239.09 173.5 237.535 174.187 235.888 174.52C234.301 174.897 232.657 174.962 231.045 174.712C229.5 174.441 228.026 173.855 226.717 172.989L229.838 186.723L218.71 189.255ZM224.024 161.493C224.294 163.332 225.213 165.013 226.614 166.233C227.176 166.663 227.829 166.961 228.522 167.104C229.215 167.246 229.932 167.231 230.618 167.057C231.256 166.93 231.854 166.654 232.365 166.252C232.877 165.851 233.287 165.335 233.562 164.746C234.188 162.904 234.188 160.907 233.562 159.064C233.293 157.217 232.406 155.515 231.045 154.236C230.54 153.817 229.946 153.519 229.308 153.366C228.67 153.213 228.005 153.208 227.365 153.353C226.689 153.499 226.054 153.796 225.509 154.222C224.963 154.647 224.521 155.191 224.215 155.811C223.494 157.626 223.427 159.634 224.024 161.493Z" fill="#151515"/>
<path d="M249.401 162.362L260.117 158.844C260.687 159.879 261.575 160.705 262.649 161.199C263.805 161.534 265.029 161.56 266.198 161.276C267.368 160.992 268.443 160.407 269.317 159.58C269.561 159.32 269.739 159.004 269.834 158.661C269.928 158.317 269.938 157.955 269.862 157.607C269.773 157.209 269.568 156.846 269.271 156.565C268.975 156.284 268.601 156.099 268.198 156.032C266.535 155.849 264.857 155.849 263.194 156.032C260.402 156.269 257.595 156.269 254.803 156.032C253.169 155.795 251.637 155.095 250.387 154.015C249.054 152.862 248.134 151.305 247.764 149.581C247.395 147.858 247.598 146.06 248.341 144.462C249.2 142.752 250.534 141.326 252.183 140.355C254.531 139.021 257.082 138.081 259.734 137.573C262.266 136.886 264.884 136.569 267.507 136.631C269.153 136.737 270.75 137.242 272.158 138.103C273.658 139.115 274.932 140.429 275.897 141.96L265.593 145.36C265.208 144.593 264.568 143.984 263.782 143.638C262.709 143.254 261.544 143.202 260.441 143.491C259.466 143.626 258.562 144.076 257.865 144.771C257.644 145.008 257.484 145.296 257.399 145.609C257.314 145.922 257.307 146.251 257.379 146.567C257.459 146.915 257.642 147.231 257.905 147.473C258.168 147.714 258.498 147.871 258.851 147.921C260.497 148.112 262.161 148.078 263.797 147.818C266.636 147.407 269.515 147.367 272.364 147.7C274.156 147.954 275.835 148.726 277.192 149.923C278.42 151.036 279.273 152.502 279.636 154.118C280.013 155.852 279.875 157.658 279.238 159.315C278.46 161.275 277.105 162.954 275.352 164.128C272.771 165.816 269.878 166.972 266.844 167.528C261.594 168.726 257.669 168.829 255.068 167.837C252.534 166.826 250.499 164.859 249.401 162.362Z" fill="#151515"/>
<path d="M285.347 125.959H297.432V135.233L295.21 153.883H287.732L285.347 135.262V125.959ZM285.936 156.694H297.211V166.675H285.936V156.694Z" fill="#151515"/>
<path d="M189.417 252.566H189.152C182.528 249.99 178.568 247.487 176.508 244.47C174.894 244.775 173.226 244.548 171.753 243.822C170.028 242.978 168.597 241.634 167.646 239.965C167.146 240.349 166.558 240.6 165.935 240.695C165.312 240.79 164.675 240.727 164.084 240.51C162.27 239.831 160.722 238.588 159.668 236.963C159.009 237.454 158.189 237.679 157.372 237.596C152.956 237.242 147.068 228.528 146.641 219.254C146.636 219.059 146.707 218.869 146.839 218.724C146.97 218.578 147.152 218.489 147.347 218.474C147.444 218.47 147.54 218.485 147.631 218.519C147.722 218.552 147.805 218.603 147.876 218.669C147.948 218.734 148.005 218.813 148.045 218.901C148.086 218.989 148.109 219.084 148.113 219.181C148.525 228.013 154.163 235.859 157.504 236.124C157.747 236.151 157.993 236.13 158.228 236.062C158.463 235.993 158.682 235.879 158.873 235.726C157.722 233.627 156.999 231.321 156.746 228.941C156.493 226.56 156.716 224.153 157.401 221.86C158.667 217.444 159.786 215.707 161.14 215.972C163.672 216.605 163.333 226.276 161.994 232.591C161.791 233.73 161.371 234.819 160.757 235.8C161.625 237.255 162.935 238.395 164.496 239.053C164.912 239.211 165.365 239.247 165.801 239.156C166.236 239.064 166.637 238.85 166.954 238.538C165.806 235.697 165.482 231.811 167.131 226.865C169.192 220.344 170.075 220.167 170.531 220.049C170.703 220.013 170.881 220.024 171.047 220.081C171.213 220.138 171.36 220.239 171.473 220.373C172.842 221.919 171.208 232.046 169.501 237.051C169.301 237.653 169.024 238.227 168.676 238.758C169.466 240.35 170.753 241.642 172.342 242.438C173.384 242.945 174.543 243.164 175.698 243.071C175.565 242.792 175.448 242.512 175.33 242.218C174.167 239.053 174.741 235.417 177.082 231.06C178.627 228.189 179.893 226.835 181.071 226.835C181.383 226.839 181.688 226.933 181.949 227.105C182.21 227.278 182.416 227.521 182.543 227.807C183.823 230.177 182.896 237.993 180.364 241.879C179.771 242.77 178.947 243.482 177.98 243.94C179.952 246.531 183.706 248.812 189.756 251.138C189.846 251.171 189.929 251.221 190 251.287C190.071 251.352 190.128 251.431 190.168 251.519C190.208 251.607 190.23 251.702 190.232 251.798C190.234 251.894 190.218 251.99 190.182 252.08C190.125 252.233 190.019 252.364 189.881 252.451C189.743 252.539 189.58 252.579 189.417 252.566ZM181.056 228.322C181.056 228.322 180.217 228.322 178.362 231.781C176.228 235.726 175.683 238.979 176.699 241.717C176.822 242.056 176.97 242.386 177.14 242.703C177.938 242.374 178.616 241.809 179.084 241.084C181.144 237.934 182.131 231.457 181.365 228.925C181.262 228.41 181.056 228.322 181.056 228.322ZM170.487 222.125C169.69 223.801 169.031 225.538 168.515 227.321C167.386 230.41 167.191 233.763 167.955 236.963L168.088 236.58C169.633 231.914 170.457 227.039 170.531 222.125H170.487ZM160.801 217.488C160.551 217.709 159.83 218.636 158.814 222.228C157.613 226.259 157.992 230.596 159.874 234.357C160.176 233.699 160.398 233.007 160.536 232.296C162.111 225.069 161.67 218.533 160.845 217.488H160.801Z" fill="#151515"/>
<path d="M245.382 329.728C243.029 329.751 240.712 329.146 238.67 327.976C238.502 327.875 238.38 327.712 238.331 327.522C238.281 327.333 238.308 327.131 238.405 326.961C238.454 326.878 238.518 326.805 238.595 326.748C238.672 326.69 238.76 326.648 238.853 326.625C238.946 326.601 239.043 326.597 239.138 326.612C239.233 326.626 239.324 326.66 239.406 326.71C244.661 329.787 251.447 327.638 252.845 325.386C252.946 325.244 253.018 325.084 253.056 324.915C253.094 324.745 253.097 324.57 253.066 324.399C250.379 324.554 247.718 323.796 245.515 322.25C241.761 319.91 241.467 319.203 241.496 318.644C241.504 318.483 241.554 318.327 241.642 318.193C241.73 318.058 241.852 317.949 241.997 317.878C243.469 317.142 250.108 320.189 252.875 322.015C253.207 322.235 253.513 322.492 253.788 322.78C254.875 322.534 255.855 321.945 256.584 321.102C256.995 320.62 257.292 320.051 257.453 319.439H257.158C254.803 319.674 252.448 318.659 249.931 316.333C248.194 314.743 247.532 313.639 247.752 312.771C247.819 312.526 247.954 312.307 248.142 312.137C248.33 311.968 248.563 311.855 248.812 311.814C250.844 311.299 255.878 313.448 257.924 315.7C258.38 316.19 258.704 316.787 258.866 317.437C260.794 316.539 262.826 314.493 265.225 311.151C265.281 311.072 265.352 311.004 265.434 310.952C265.516 310.9 265.608 310.865 265.703 310.848C265.799 310.832 265.897 310.835 265.992 310.856C266.087 310.878 266.176 310.918 266.255 310.975C266.413 311.09 266.52 311.262 266.553 311.454C266.585 311.646 266.542 311.844 266.432 312.005C263.65 315.891 261.324 318.099 258.998 318.997C258.878 320.085 258.432 321.111 257.718 321.941C256.87 322.927 255.756 323.647 254.509 324.017C254.579 324.368 254.578 324.73 254.508 325.081C254.437 325.432 254.297 325.766 254.097 326.063C252.86 328.168 249.298 329.728 245.382 329.728ZM244.072 319.512C244.573 319.88 245.279 320.366 246.295 320.984C247.878 322.052 249.696 322.719 251.594 322.927C249.225 321.507 246.701 320.361 244.072 319.512ZM249.21 313.256C249.633 314.052 250.22 314.75 250.932 315.302C253.11 317.319 255.098 318.246 257.011 318.011H257.482C257.378 317.554 257.154 317.132 256.835 316.789C254.774 314.463 250.24 313.021 249.21 313.256Z" fill="#151515"/>
<path d="M264.872 327.711L241.938 331.877L221.109 218.209L176.861 226.246L104.733 354.31L112.476 396.572L204.991 379.776L211.32 414.339L255.569 406.272L249.239 371.709L272.173 367.544L264.872 327.711ZM148.804 348.864L187.076 281.785L197.748 339.988L148.804 348.864Z" fill="#38a39d"/>
<path d="M449.593 210.496C448.896 203.35 447.314 196.319 444.883 189.564C442.381 183.093 438.906 177.043 434.579 171.62C429.455 165.312 423.093 160.122 415.884 156.371C408.034 152.063 397.622 149.065 384.648 147.377C357.711 143.863 336.72 148.643 321.676 161.714C306.632 174.785 296.721 199.809 291.942 236.786C290.034 250.605 289.54 264.583 290.47 278.502C291.451 291.26 293.797 301.529 297.506 309.311C302.226 319.806 309.673 328.843 319.071 335.484C328.364 342.009 341.121 346.322 357.343 348.422C386.174 352.181 407.553 346.641 421.478 331.804C435.403 316.966 444.627 291.893 449.151 256.584C451.162 241.296 451.311 225.82 449.593 210.496Z" fill="#38a39d"/>
<path d="M370.605 333.305C367.058 333.187 363.245 332.863 359.404 332.363C345.92 330.611 335.498 327.196 328.403 322.221C321.328 317.225 315.733 310.41 312.211 302.496L312.138 302.334C309.311 296.446 307.457 287.982 306.647 277.31C305.789 264.491 306.243 251.618 308.001 238.891C313.256 198.087 324.105 181.056 332.275 173.961C341.813 165.688 354.693 161.949 371.621 162.538C375.095 162.656 378.775 162.965 382.558 163.451C393.421 164.923 402.033 167.278 408.127 170.605C413.393 173.317 418.054 177.067 421.831 181.63C425.135 185.751 427.791 190.353 429.706 195.276C431.662 200.765 432.928 206.476 433.475 212.277C435.044 226.334 434.901 240.53 433.048 254.553C428.97 286.26 421.08 308.546 409.613 320.793C401.105 329.86 388.343 334.041 370.591 333.364L370.605 333.305Z" fill="#151515"/>
<path d="M399.412 210.923L399.604 205.344L396.174 204.225C396.028 202.338 395.723 200.467 395.261 198.632L398.205 196.483L396.233 191.242L392.641 191.537C391.797 189.852 390.812 188.242 389.697 186.723L391.552 183.617L387.725 179.54L384.516 181.188C383.08 179.954 381.544 178.841 379.923 177.862L380.438 174.3L375.345 171.988L373.02 174.726C371.218 174.143 369.372 173.709 367.5 173.431L366.631 169.942L361.037 169.751L359.933 173.166C358.047 173.317 356.176 173.622 354.34 174.079L352.176 171.135L346.936 173.092L347.23 176.684C345.546 177.529 343.936 178.514 342.417 179.628L339.325 177.759L335.233 181.571L336.882 184.795C335.644 186.23 334.536 187.772 333.57 189.402L330.008 188.858L327.682 193.951L330.435 196.276C329.837 198.079 329.404 199.931 329.139 201.811L325.636 202.694L325.444 208.259L328.874 209.377C329.018 211.269 329.323 213.146 329.787 214.986L326.843 217.12L328.815 222.36L332.407 222.066C333.243 223.755 334.228 225.366 335.351 226.879L333.482 229.985L337.309 234.063L340.518 232.429C341.954 233.659 343.49 234.766 345.11 235.741L344.58 239.303L349.674 241.614L352.014 238.891C353.82 239.471 355.671 239.9 357.549 240.172L358.417 243.675L363.996 243.866L365.1 240.436C366.992 240.293 368.868 239.987 370.708 239.524L372.843 242.468L378.083 240.51L377.804 236.933C379.481 236.077 381.091 235.093 382.617 233.989L385.708 235.844L389.8 232.031L388.166 228.808C389.4 227.378 390.503 225.841 391.464 224.215L395.026 224.745L397.352 219.652L394.614 217.326C395.199 215.527 395.628 213.68 395.894 211.806L399.412 210.923ZM361.729 228.984C357.369 228.825 353.154 227.378 349.616 224.825C346.078 222.272 343.376 218.729 341.85 214.642C340.324 210.554 340.043 206.107 341.043 201.86C342.042 197.613 344.278 193.758 347.467 190.78C350.655 187.803 354.655 185.837 358.96 185.13C363.265 184.424 367.683 185.009 371.656 186.811C375.629 188.613 378.98 191.552 381.284 195.256C383.588 198.961 384.744 203.265 384.604 207.626C384.511 210.532 383.845 213.392 382.644 216.04C381.442 218.688 379.73 221.073 377.604 223.058C375.479 225.042 372.982 226.587 370.258 227.605C367.534 228.622 364.635 229.09 361.729 228.984Z" fill="#38a39d"/>
<path opacity="0.3" d="M422.641 313.345L423.053 309.576L420.786 308.664C420.782 307.381 420.674 306.101 420.462 304.836L422.508 303.526L421.463 299.891H419.02C418.536 298.708 417.95 297.57 417.268 296.49L418.652 294.488L416.296 291.544L414.044 292.486C413.132 291.584 412.147 290.757 411.1 290.013L411.645 287.629L408.333 285.804L406.596 287.555C405.413 287.068 404.192 286.679 402.945 286.392L402.533 283.993L398.78 283.566L397.852 285.833C396.573 285.839 395.298 285.957 394.04 286.186L392.73 284.096L389.094 285.171V287.614C387.911 288.103 386.773 288.694 385.693 289.38L383.692 287.908L380.748 290.264L381.69 292.516C380.792 293.429 379.97 294.414 379.231 295.46L376.847 294.93L375.036 298.242L376.773 299.964C376.28 301.15 375.891 302.376 375.61 303.629L373.196 304.027L372.799 307.78L375.051 308.723C375.052 309.996 375.165 311.267 375.389 312.52L373.314 313.83L374.374 317.466H376.832C377.323 318.643 377.914 319.776 378.598 320.852L377.126 322.854L379.482 325.798L381.763 324.841C382.669 325.747 383.654 326.569 384.707 327.299L384.192 329.728L387.504 331.539L389.226 329.816C390.411 330.292 391.631 330.671 392.877 330.95L393.304 333.364L397.057 333.776L397.97 331.524C399.272 331.522 400.572 331.414 401.856 331.2L403.166 333.276L406.787 332.216V329.772C407.971 329.275 409.113 328.684 410.202 328.006L412.175 329.478L415.119 327.108L414.162 324.856C415.069 323.943 415.901 322.958 416.65 321.912L419.02 322.442L420.845 319.13L419.108 317.422C419.581 316.237 419.96 315.016 420.241 313.772L422.641 313.345ZM403.696 311.873C403.073 313.012 402.126 313.942 400.975 314.543C399.824 315.144 398.52 315.391 397.229 315.251C395.938 315.111 394.717 314.592 393.721 313.758C392.725 312.924 391.999 311.814 391.634 310.568C391.269 309.321 391.283 307.994 391.672 306.755C392.062 305.516 392.81 304.421 393.822 303.607C394.835 302.793 396.066 302.298 397.359 302.184C398.653 302.07 399.952 302.343 401.091 302.967C402.613 303.806 403.742 305.214 404.23 306.882C404.718 308.551 404.526 310.345 403.696 311.873Z" fill="#38a39d"/>
<path d="M443.499 249.725L439.083 246.692C438.648 245.116 438.057 243.587 437.316 242.129L438.435 237.713L432.076 230.898L427.66 231.722C426.259 230.888 424.78 230.193 423.244 229.647L420.521 225.054L411.203 224.745L408.171 229.161C406.592 229.589 405.063 230.181 403.608 230.927L399.192 229.794L392.376 236.168L393.201 240.584C392.355 241.978 391.659 243.458 391.125 245L386.547 247.723L386.223 257.041L390.639 260.073C391.067 261.661 391.659 263.2 392.406 264.666L391.287 269.082L397.646 275.897L402.062 275.087C403.464 275.92 404.943 276.615 406.478 277.163L409.187 281.741L418.519 282.065L421.537 277.649C423.128 277.217 424.672 276.625 426.144 275.882L430.56 277.001L437.375 270.642L436.566 266.226C437.402 264.826 438.098 263.347 438.641 261.81L443.219 259.087L443.499 249.725ZM414.456 263.885C412.385 263.814 410.38 263.13 408.697 261.92C407.014 260.71 405.728 259.028 405.001 257.087C404.274 255.145 404.139 253.032 404.613 251.014C405.087 248.996 406.149 247.164 407.664 245.749C409.18 244.335 411.081 243.402 413.126 243.067C415.172 242.733 417.271 243.013 419.158 243.872C421.045 244.731 422.634 246.13 423.726 247.892C424.817 249.655 425.362 251.701 425.29 253.773C425.19 256.549 423.994 259.172 421.963 261.068C419.932 262.964 417.233 263.977 414.456 263.885Z" fill="white"/>
<path d="M475.456 175.345L476.221 173.505C476.742 173.211 477.234 172.871 477.693 172.489H479.401L481.403 169.545L480.755 167.97C481.003 167.445 481.2 166.898 481.344 166.336L482.816 164.982L482.198 161.523L480.343 160.757C480.052 160.235 479.712 159.742 479.327 159.285V157.578L476.457 155.576L474.867 156.238C474.286 156.033 473.684 155.895 473.071 155.826L471.717 154.354L468.273 154.972L467.492 156.827C466.946 157.11 466.429 157.445 465.947 157.828H464.254L462.252 160.772L462.9 162.347C462.702 162.93 462.564 163.532 462.488 164.143L461.016 165.512L461.634 168.956L463.489 169.722C463.769 170.246 464.105 170.74 464.49 171.194V172.886L467.434 174.888L469.009 174.241C469.598 174.432 470.204 174.565 470.819 174.638L472.173 176.11L475.456 175.345ZM468.096 165.806C467.957 165.038 468.049 164.246 468.36 163.53C468.671 162.814 469.187 162.207 469.844 161.785C470.5 161.362 471.267 161.144 472.048 161.158C472.828 161.172 473.587 161.417 474.228 161.862C474.869 162.308 475.364 162.933 475.649 163.66C475.935 164.386 475.998 165.181 475.832 165.944C475.666 166.706 475.277 167.402 474.715 167.944C474.152 168.485 473.442 168.848 472.674 168.986C471.646 169.166 470.588 168.933 469.731 168.338C468.873 167.742 468.286 166.832 468.096 165.806Z" fill="#38a39d"/>
<path d="M435.138 165.585L434.004 164.628C436.433 161.616 439.435 159.114 442.836 157.268L443.528 158.564C440.294 160.325 437.441 162.712 435.138 165.585Z" fill="#38a39d"/>
<path d="M446.884 157.21L446.31 155.855C451.746 153.493 457.69 152.541 463.592 153.088L463.444 154.56C457.789 154.027 452.091 154.939 446.884 157.21Z" fill="#38a39d"/>
<path d="M444.102 167.396L442.895 166.572C446.442 161.783 451.603 158.441 457.424 157.165L457.704 158.637C452.264 159.825 447.435 162.935 444.102 167.396Z" fill="#38a39d"/>
<path d="M346.42 309.12C346.22 309.114 346.029 309.029 345.891 308.884L342.814 305.705C341.246 305.563 339.694 305.277 338.177 304.851L333.364 306.971C333.258 307.029 333.139 307.059 333.018 307.059C332.897 307.059 332.778 307.029 332.672 306.971L324.605 301.628C324.501 301.559 324.417 301.465 324.36 301.354C324.303 301.243 324.276 301.119 324.282 300.995V295.754C323.297 294.523 322.43 293.202 321.691 291.809L317.555 290.22C317.439 290.175 317.336 290.101 317.256 290.006C317.177 289.911 317.122 289.797 317.098 289.675L315.185 280.195C315.159 280.074 315.165 279.949 315.201 279.83C315.237 279.712 315.302 279.605 315.391 279.518L318.57 276.442C318.722 274.875 319.008 273.323 319.424 271.805L317.304 266.991C317.246 266.885 317.216 266.766 317.216 266.645C317.216 266.525 317.246 266.406 317.304 266.3L322.648 258.233C322.714 258.127 322.808 258.041 322.919 257.984C323.031 257.926 323.156 257.901 323.281 257.909L328.521 257.983C329.749 256.993 331.07 256.126 332.466 255.392L334.07 251.256C334.113 251.141 334.184 251.039 334.276 250.959C334.369 250.879 334.481 250.824 334.6 250.799L344.08 248.886C344.201 248.859 344.327 248.864 344.446 248.9C344.564 248.936 344.672 249.002 344.757 249.092L347.834 252.271C349.407 252.415 350.964 252.701 352.485 253.125L357.284 251.005C357.393 250.947 357.514 250.917 357.637 250.917C357.76 250.917 357.882 250.947 357.99 251.005L366.042 256.349C366.144 256.42 366.228 256.515 366.287 256.625C366.346 256.735 366.378 256.857 366.381 256.982L366.292 262.222C367.282 263.453 368.154 264.774 368.898 266.167L373.02 267.772C373.134 267.814 373.236 267.885 373.316 267.977C373.396 268.07 373.451 268.182 373.476 268.301L375.404 277.781C375.427 277.902 375.42 278.027 375.384 278.145C375.348 278.263 375.284 278.37 375.198 278.458L372.004 281.549C371.857 283.112 371.571 284.659 371.15 286.172L373.27 290.985C373.328 291.094 373.358 291.215 373.358 291.338C373.358 291.461 373.328 291.583 373.27 291.692L368 299.684C367.931 299.784 367.839 299.866 367.731 299.923C367.623 299.979 367.503 300.008 367.382 300.008L362.127 299.935C360.894 300.911 359.579 301.778 358.196 302.525L356.592 306.662C356.548 306.778 356.475 306.882 356.38 306.962C356.284 307.042 356.17 307.095 356.047 307.118L346.568 309.12H346.42ZM338.133 303.232C338.201 303.219 338.271 303.219 338.339 303.232C339.929 303.695 341.561 303.996 343.212 304.13C343.388 304.151 343.554 304.228 343.683 304.351L346.627 307.442L355.311 305.69L356.872 301.657C356.944 301.494 357.068 301.359 357.225 301.274C358.695 300.514 360.082 299.601 361.361 298.551C361.497 298.437 361.67 298.379 361.847 298.389L366.955 298.463L371.842 291.103L369.781 286.422C369.723 286.26 369.723 286.083 369.781 285.921C370.236 284.33 370.537 282.698 370.679 281.049C370.694 280.871 370.772 280.704 370.9 280.578L373.991 277.634L372.239 268.949L368.221 267.389C368.048 267.326 367.906 267.2 367.823 267.036C367.06 265.567 366.147 264.181 365.1 262.899C364.995 262.765 364.938 262.599 364.938 262.428V257.306L357.578 252.419L352.912 254.479C352.745 254.539 352.563 254.539 352.397 254.479C350.802 254.019 349.165 253.718 347.51 253.581C347.333 253.561 347.168 253.483 347.039 253.361L344.095 250.269L335.41 252.036L333.864 256.128C333.803 256.297 333.683 256.438 333.526 256.525C332.05 257.284 330.658 258.197 329.375 259.249C329.311 259.306 329.237 259.35 329.156 259.378C329.075 259.406 328.989 259.417 328.904 259.411L323.796 259.337L318.894 266.697L320.955 271.378C321.002 271.477 321.026 271.585 321.026 271.694C321.026 271.804 321.002 271.912 320.955 272.011C320.519 273.565 320.233 275.157 320.101 276.765C320.087 276.944 320.009 277.112 319.88 277.236L316.789 280.18L318.556 288.865L322.559 290.426C322.738 290.5 322.884 290.636 322.972 290.808C323.731 292.267 324.638 293.643 325.68 294.915C325.789 295.047 325.847 295.215 325.842 295.386V300.509L333.202 305.396L337.883 303.335C337.96 303.286 338.044 303.251 338.133 303.232ZM345.361 298.463C341.818 298.46 338.342 297.496 335.302 295.676C332.263 293.855 329.773 291.244 328.099 288.122C326.425 285 325.627 281.482 325.792 277.942C325.957 274.403 327.078 270.975 329.036 268.022C330.909 265.189 333.484 262.89 336.512 261.351C339.539 259.811 342.913 259.084 346.306 259.24C349.698 259.396 352.992 260.429 355.865 262.24C358.739 264.05 361.093 266.575 362.698 269.568C364.303 272.561 365.103 275.919 365.022 279.314C364.94 282.709 363.978 286.024 362.231 288.936C360.484 291.848 358.011 294.257 355.054 295.927C352.096 297.597 348.757 298.47 345.361 298.463ZM330.273 268.831C328.291 271.821 327.241 275.331 327.254 278.917C327.267 282.503 328.344 286.005 330.347 288.98C332.35 291.955 335.191 294.269 338.509 295.629C341.827 296.99 345.475 297.336 348.99 296.624C352.505 295.912 355.73 294.174 358.257 291.629C360.784 289.084 362.5 285.847 363.188 282.327C363.875 278.808 363.504 275.163 362.12 271.854C360.737 268.545 358.403 265.721 355.414 263.738C353.432 262.412 351.207 261.491 348.868 261.029C346.528 260.567 344.12 260.573 341.782 261.046C339.445 261.52 337.224 262.451 335.249 263.788C333.273 265.124 331.582 266.838 330.273 268.831Z" fill="white"/>
<path d="M626.822 340.989L603.711 337.868L618.991 223.332L574.419 217.326L466.3 316.863L460.618 359.448L553.781 372.019L549.13 406.861L593.702 412.867L598.353 378.039L621.464 381.16L626.822 340.989ZM509.916 325.209L566.97 273.203L559.139 331.848L509.916 325.209Z" fill="#38a39d"/>
<path d="M580.159 411.777H579.968C579.777 411.741 579.608 411.632 579.498 411.472C579.387 411.312 579.345 411.115 579.379 410.924L613.824 222.596C613.863 222.407 613.974 222.24 614.133 222.13C614.292 222.021 614.487 221.976 614.678 222.007C614.869 222.043 615.038 222.153 615.148 222.313C615.258 222.473 615.301 222.67 615.267 222.861L580.895 411.174C580.861 411.344 580.769 411.497 580.635 411.607C580.501 411.717 580.333 411.777 580.159 411.777Z" fill="#151515"/>
<path d="M610.63 225.761C610.618 226.081 610.48 226.383 610.245 226.601C610.01 226.819 609.699 226.935 609.379 226.924C609.058 226.912 608.756 226.773 608.538 226.539C608.32 226.304 608.204 225.992 608.216 225.672C608.227 225.352 608.366 225.05 608.6 224.832C608.835 224.614 609.147 224.498 609.467 224.509C609.787 224.521 610.089 224.66 610.307 224.894C610.526 225.129 610.641 225.441 610.63 225.761Z" fill="#151515"/>
<path d="M605.728 251.226C605.719 251.465 605.64 251.695 605.5 251.889C605.36 252.082 605.166 252.23 604.942 252.313C604.719 252.396 604.475 252.411 604.243 252.356C604.011 252.301 603.8 252.178 603.638 252.003C603.475 251.828 603.368 251.609 603.33 251.374C603.292 251.138 603.325 250.896 603.424 250.679C603.523 250.462 603.685 250.28 603.888 250.154C604.091 250.029 604.327 249.966 604.565 249.975C604.724 249.981 604.879 250.018 605.024 250.084C605.168 250.15 605.298 250.243 605.406 250.36C605.514 250.476 605.598 250.612 605.653 250.761C605.708 250.91 605.734 251.068 605.728 251.226Z" fill="#151515"/>
<path d="M600.826 276.736C600.821 276.895 600.784 277.05 600.718 277.195C600.652 277.339 600.558 277.469 600.442 277.577C600.326 277.685 600.189 277.769 600.04 277.824C599.892 277.879 599.734 277.905 599.575 277.899C599.417 277.895 599.262 277.86 599.117 277.796C598.973 277.731 598.843 277.639 598.735 277.524C598.627 277.409 598.543 277.273 598.487 277.125C598.432 276.978 598.406 276.82 598.412 276.662C598.416 276.503 598.452 276.345 598.517 276.199C598.582 276.053 598.675 275.922 598.792 275.812C598.908 275.702 599.045 275.617 599.195 275.561C599.344 275.505 599.504 275.479 599.663 275.485C599.982 275.5 600.283 275.64 600.5 275.873C600.717 276.107 600.834 276.417 600.826 276.736Z" fill="#151515"/>
<path d="M591.17 303.232C591.137 303.527 590.997 303.8 590.775 303.998C590.554 304.196 590.267 304.306 589.97 304.306C589.673 304.306 589.386 304.196 589.165 303.998C588.944 303.8 588.803 303.527 588.771 303.232C588.752 303.063 588.769 302.893 588.821 302.731C588.872 302.569 588.958 302.42 589.071 302.294C589.184 302.167 589.323 302.066 589.478 301.997C589.633 301.928 589.8 301.892 589.97 301.892C590.14 301.892 590.308 301.928 590.463 301.997C590.618 302.066 590.756 302.167 590.87 302.294C590.983 302.42 591.068 302.569 591.12 302.731C591.172 302.893 591.189 303.063 591.17 303.232Z" fill="#151515"/>
<path d="M591.008 327.623C591.004 327.782 590.969 327.939 590.903 328.084C590.838 328.229 590.744 328.36 590.628 328.468C590.511 328.577 590.374 328.661 590.224 328.715C590.075 328.77 589.916 328.794 589.757 328.786C589.518 328.777 589.288 328.698 589.094 328.558C588.901 328.418 588.753 328.224 588.67 328C588.587 327.776 588.572 327.533 588.627 327.301C588.682 327.069 588.805 326.858 588.98 326.696C589.155 326.533 589.374 326.426 589.61 326.388C589.845 326.35 590.087 326.383 590.304 326.482C590.521 326.581 590.704 326.743 590.829 326.946C590.954 327.149 591.017 327.385 591.008 327.623Z" fill="#151515"/>
<path d="M586.106 353.089C586.1 353.328 586.023 353.56 585.885 353.755C585.747 353.951 585.554 354.101 585.33 354.186C585.107 354.271 584.863 354.288 584.63 354.235C584.396 354.181 584.184 354.06 584.02 353.885C583.856 353.711 583.748 353.492 583.709 353.256C583.67 353.02 583.702 352.777 583.8 352.559C583.899 352.342 584.061 352.158 584.264 352.032C584.468 351.906 584.704 351.843 584.943 351.852C585.261 351.864 585.561 352 585.779 352.231C585.997 352.463 586.114 352.771 586.106 353.089Z" fill="#151515"/>
<path d="M581.204 378.554C581.193 378.876 581.055 379.18 580.821 379.4C580.587 379.621 580.275 379.74 579.953 379.732C579.795 379.726 579.639 379.689 579.495 379.623C579.35 379.557 579.22 379.463 579.112 379.347C579.004 379.231 578.92 379.095 578.865 378.946C578.81 378.797 578.784 378.639 578.79 378.481C578.795 378.322 578.831 378.166 578.896 378.021C578.961 377.877 579.054 377.747 579.17 377.638C579.285 377.529 579.421 377.444 579.57 377.388C579.718 377.332 579.876 377.306 580.034 377.31C580.193 377.315 580.349 377.351 580.493 377.416C580.638 377.481 580.768 377.574 580.877 377.69C580.986 377.805 581.07 377.941 581.127 378.09C581.183 378.238 581.209 378.396 581.204 378.554Z" fill="#151515"/>
<path d="M576.288 404.035C576.279 404.273 576.2 404.504 576.06 404.697C575.92 404.89 575.726 405.038 575.502 405.121C575.279 405.204 575.035 405.219 574.803 405.164C574.571 405.109 574.36 404.986 574.198 404.811C574.035 404.637 573.928 404.417 573.89 404.182C573.852 403.946 573.885 403.705 573.984 403.488C574.083 403.271 574.245 403.088 574.448 402.962C574.651 402.837 574.887 402.775 575.125 402.783C575.284 402.787 575.441 402.823 575.586 402.888C575.731 402.953 575.862 403.047 575.97 403.164C576.079 403.28 576.163 403.417 576.217 403.567C576.272 403.717 576.296 403.876 576.288 404.035Z" fill="#151515"/>
<path d="M589.963 303.894C589.797 303.895 589.636 303.837 589.508 303.733C589.379 303.628 589.29 303.483 589.256 303.32C589.235 303.226 589.232 303.127 589.248 303.032C589.265 302.936 589.3 302.844 589.352 302.762C589.404 302.68 589.472 302.609 589.551 302.553C589.631 302.497 589.721 302.458 589.816 302.437L593.466 301.657C593.562 301.635 593.661 301.633 593.758 301.651C593.854 301.668 593.947 301.704 594.029 301.758C594.111 301.811 594.182 301.881 594.237 301.962C594.292 302.043 594.33 302.135 594.349 302.231C594.369 302.326 594.369 302.423 594.351 302.518C594.333 302.613 594.296 302.704 594.242 302.784C594.189 302.865 594.12 302.934 594.04 302.988C593.96 303.042 593.87 303.08 593.775 303.1L590.125 303.88L589.963 303.894Z" fill="#151515"/>
<path d="M602.166 290.337C600.429 294.841 598.955 299.441 597.75 304.115C596.646 309.311 596.587 320.94 596.587 320.94" fill="#151515"/>
<path d="M596.587 321.676C596.391 321.669 596.206 321.587 596.07 321.447C595.933 321.308 595.854 321.121 595.851 320.925C595.851 320.454 595.939 309.149 597.043 303.968C598.241 299.253 599.716 294.614 601.459 290.072C601.489 289.975 601.538 289.886 601.603 289.809C601.669 289.732 601.75 289.669 601.841 289.625C601.932 289.58 602.031 289.555 602.132 289.551C602.234 289.547 602.335 289.563 602.429 289.6C602.523 289.637 602.609 289.692 602.681 289.763C602.753 289.835 602.81 289.92 602.847 290.014C602.885 290.108 602.902 290.209 602.899 290.31C602.896 290.411 602.872 290.511 602.828 290.602C601.093 295.071 599.619 299.637 598.412 304.277C597.338 309.341 597.264 320.822 597.249 320.94C597.25 321.123 597.183 321.3 597.06 321.436C596.938 321.572 596.769 321.658 596.587 321.676Z" fill="#151515"/>
<path d="M327.446 448.724C329.492 415.752 325.739 355.797 387.725 363.746C454.156 372.239 435.153 449.932 435.153 449.932L327.446 448.724Z" fill="#151515"/>
<path d="M370.223 428.911C385.165 428.911 397.278 416.798 397.278 401.856C397.278 386.914 385.165 374.801 370.223 374.801C355.28 374.801 343.167 386.914 343.167 401.856C343.167 416.798 355.28 428.911 370.223 428.911Z" fill="white"/>
<path d="M373.785 374.845C360.964 372.666 347.289 382.102 345.92 391.67L396.719 396.351C394.923 385.443 383.942 376.582 373.785 374.845Z" fill="#151515"/>
<path d="M390.934 401.179C390.566 408.259 386.709 413.809 382.323 413.573C377.936 413.338 374.668 407.435 374.963 400.325C375.257 393.215 379.187 387.695 383.574 387.931C387.96 388.166 391.287 394.113 390.934 401.179Z" fill="#151515"/>
<path d="M370.223 430.383C364.581 430.383 359.065 428.71 354.374 425.576C349.682 422.441 346.026 417.986 343.867 412.773C341.708 407.56 341.143 401.824 342.243 396.291C343.344 390.757 346.061 385.674 350.051 381.684C354.04 377.694 359.124 374.978 364.657 373.877C370.191 372.776 375.927 373.341 381.14 375.5C386.352 377.659 390.808 381.316 393.942 386.007C397.077 390.698 398.75 396.214 398.75 401.856C398.742 409.42 395.734 416.671 390.386 422.019C385.038 427.368 377.786 430.376 370.223 430.383ZM370.223 376.287C365.162 376.287 360.215 377.788 356.008 380.6C351.8 383.412 348.521 387.408 346.585 392.084C344.649 396.759 344.144 401.904 345.132 406.867C346.12 411.83 348.558 416.389 352.138 419.966C355.717 423.543 360.277 425.979 365.241 426.964C370.204 427.95 375.349 427.441 380.023 425.502C384.698 423.564 388.692 420.282 391.502 416.073C394.311 411.864 395.809 406.917 395.806 401.856C395.798 395.075 393.1 388.573 388.303 383.78C383.507 378.986 377.004 376.291 370.223 376.287Z" fill="#38a39d"/>
<path opacity="0.3" d="M427.601 447.9H427.425C427.33 447.879 427.241 447.84 427.162 447.784C427.083 447.728 427.016 447.657 426.965 447.574C426.914 447.492 426.88 447.4 426.866 447.304C426.851 447.208 426.856 447.111 426.88 447.017C426.88 446.826 431.62 426.865 426.748 406.684C426.701 406.489 426.733 406.283 426.838 406.112C426.943 405.941 427.112 405.818 427.307 405.772C427.502 405.725 427.708 405.757 427.879 405.862C428.05 405.967 428.173 406.136 428.22 406.331C433.18 426.939 428.396 447.164 428.352 447.356C428.308 447.519 428.21 447.662 428.073 447.761C427.937 447.86 427.77 447.909 427.601 447.9Z" fill="white"/>
<path opacity="0.3" d="M423.494 395.615C423.353 395.613 423.215 395.572 423.096 395.497C422.976 395.422 422.88 395.315 422.817 395.188C420.988 391.144 418.643 387.354 415.84 383.912C415.718 383.762 415.66 383.569 415.68 383.376C415.699 383.183 415.794 383.005 415.943 382.882C416.018 382.819 416.105 382.772 416.198 382.743C416.292 382.715 416.39 382.705 416.487 382.714C416.585 382.724 416.679 382.753 416.765 382.799C416.851 382.846 416.927 382.909 416.988 382.985C419.86 386.526 422.269 390.419 424.157 394.57C424.199 394.656 424.223 394.751 424.228 394.847C424.233 394.943 424.218 395.039 424.185 395.13C424.152 395.22 424.102 395.304 424.036 395.374C423.97 395.445 423.891 395.502 423.804 395.541C423.706 395.586 423.601 395.611 423.494 395.615Z" fill="white"/>
<path d="M189.491 603.402H188.946C186.994 603.348 185.144 602.52 183.802 601.101C182.46 599.682 181.737 597.788 181.792 595.836C181.847 593.884 182.675 592.034 184.093 590.692C185.512 589.351 187.406 588.628 189.358 588.682H189.491C193.745 588.682 203.975 583.516 225.378 549.777C225.946 548.881 226.701 548.119 227.592 547.542C228.482 546.965 229.487 546.587 230.537 546.435C231.587 546.282 232.657 546.359 233.675 546.659C234.692 546.959 235.633 547.475 236.433 548.173C253.241 562.622 271.572 575.198 291.103 585.679C292.007 586.09 292.818 586.68 293.488 587.413C294.158 588.146 294.673 589.007 295.001 589.944C295.33 590.881 295.465 591.874 295.4 592.865C295.334 593.856 295.069 594.823 294.619 595.709C294.17 596.594 293.546 597.38 292.786 598.018C292.025 598.656 291.143 599.134 290.193 599.422C289.243 599.71 288.244 599.803 287.257 599.696C286.27 599.588 285.315 599.281 284.449 598.795C266.298 589.15 249.14 577.74 233.224 564.733C215.28 591.744 201.973 603.402 189.491 603.402Z" fill="#151515"/>
<path d="M235.034 546.848H234.401C233.245 546.68 232.201 546.061 231.501 545.126C230.8 544.19 230.498 543.015 230.662 541.858C231.707 534.498 230.412 507.075 221.124 485.731C220.712 484.787 220.642 483.73 220.927 482.741C221.212 481.752 221.834 480.893 222.684 480.314C242.851 466.58 285.803 464.931 287.629 464.872C288.209 464.853 288.787 464.948 289.33 465.152C289.873 465.356 290.371 465.665 290.794 466.062C291.218 466.458 291.56 466.934 291.799 467.462C292.039 467.991 292.173 468.561 292.192 469.141C292.211 469.721 292.116 470.299 291.912 470.842C291.708 471.385 291.399 471.883 291.003 472.307C290.606 472.731 290.13 473.072 289.602 473.312C289.074 473.552 288.503 473.685 287.923 473.704C287.526 473.704 249.975 475.176 230.692 485.775C238.906 507.03 240.775 533.512 239.406 543.094C239.247 544.14 238.719 545.094 237.917 545.782C237.114 546.471 236.092 546.849 235.034 546.848Z" fill="#151515"/>
<path d="M242.453 541.137C239.509 534.203 226.261 534.984 218.504 540.931C214.353 544.095 208.73 553.649 208.2 557.123C208.023 557.948 208.049 558.804 208.277 559.617C208.504 560.43 208.925 561.175 209.505 561.789C210.084 562.403 210.804 562.867 211.602 563.142C212.4 563.416 213.253 563.492 214.088 563.364C219.166 562.922 226.129 555.547 226.129 555.547C221.492 560.096 227.483 563.305 236.433 556.725C241.32 553.06 245.736 548.894 242.453 541.137Z" fill="#38a39d"/>
<path d="M495.637 450.668C495.569 450.683 495.499 450.683 495.431 450.668C495.337 450.642 495.249 450.598 495.173 450.538C495.096 450.478 495.033 450.403 494.986 450.318C494.939 450.233 494.91 450.139 494.901 450.042C494.891 449.945 494.901 449.848 494.931 449.755C496.888 442.925 499.023 438.759 501.834 436.507C501.394 434.924 501.476 433.241 502.07 431.708C502.756 429.919 503.967 428.38 505.544 427.292C505.115 426.829 504.81 426.265 504.659 425.652C504.507 425.04 504.512 424.399 504.675 423.789C505.208 421.945 506.311 420.317 507.825 419.137C507.279 418.526 506.98 417.734 506.986 416.915C506.986 412.499 515.097 405.845 524.297 404.579C524.492 404.552 524.69 404.603 524.848 404.722C525.005 404.841 525.109 405.017 525.136 405.212C525.163 405.407 525.112 405.605 524.993 405.763C524.875 405.92 524.698 406.024 524.503 406.051C515.759 407.244 508.429 413.573 508.458 416.915C508.455 417.413 508.645 417.893 508.988 418.254C510.968 416.911 513.196 415.976 515.541 415.504C517.887 415.031 520.303 415.03 522.648 415.501C527.167 416.37 529.007 417.327 528.801 418.696C528.389 421.272 518.777 421.816 512.33 421.051C511.175 420.946 510.05 420.621 509.018 420.094C507.629 421.082 506.597 422.491 506.074 424.113C505.947 424.542 505.948 424.998 506.076 425.427C506.204 425.855 506.454 426.237 506.795 426.527C509.533 425.055 513.375 424.525 518.453 425.644C525.121 427.116 525.371 427.925 525.533 428.411C525.585 428.582 525.589 428.765 525.545 428.939C525.501 429.113 525.411 429.271 525.283 429.397C523.885 430.869 513.654 430.177 508.517 428.911C507.897 428.77 507.298 428.547 506.736 428.249C505.215 429.173 504.045 430.576 503.409 432.238C502.984 433.313 502.867 434.486 503.071 435.624C503.333 435.467 503.603 435.324 503.88 435.197C506.927 433.725 510.607 433.99 515.156 435.933C518.1 437.213 519.572 438.362 519.719 439.524C519.725 439.823 519.651 440.117 519.503 440.376C519.355 440.636 519.14 440.85 518.88 440.996C516.628 442.468 508.767 442.262 504.675 440.084C503.734 439.573 502.95 438.814 502.408 437.891C500.009 440.099 498.066 444.029 496.299 450.196C496.246 450.33 496.155 450.446 496.038 450.529C495.92 450.613 495.781 450.661 495.637 450.668ZM503.615 436.934C504.025 437.695 504.65 438.32 505.411 438.73C508.738 440.496 515.274 440.893 517.717 439.907C518.218 439.701 518.291 439.539 518.291 439.539C518.291 439.539 518.218 438.715 514.611 437.169C510.49 435.403 507.251 435.153 504.557 436.404C504.232 436.56 503.918 436.737 503.615 436.934ZM508.532 427.263L508.9 427.366C513.693 428.47 518.626 428.843 523.531 428.47C521.792 427.824 519.999 427.332 518.173 426.998C515.003 426.139 511.65 426.231 508.532 427.263ZM510.387 418.99C511.066 419.234 511.773 419.392 512.491 419.461C519.851 420.33 526.314 419.314 527.211 418.387C526.961 418.166 525.975 417.533 522.324 416.841C518.217 416.022 513.951 416.79 510.387 418.99Z" fill="#151515"/>
<path d="M304.012 600.944C304.984 600.635 304.66 599.693 303.571 599.693H283.64C245.692 595.674 219.181 601.062 235.888 602.328C252.595 603.594 234.71 603.329 222.508 607.951C210.305 612.573 313.256 613.736 322.604 607.951C331.2 602.622 290.558 605.257 304.012 600.944Z" fill="#151515"/>
<path d="M446.708 606.817L273.306 601.062L266.108 432.93L470.878 437.508L446.708 606.817Z" fill="#38a39d"/>
<path d="M327.446 603.594C327.261 603.594 327.082 603.525 326.946 603.399C326.809 603.274 326.725 603.101 326.71 602.917L312.815 434.049C312.802 433.854 312.866 433.663 312.992 433.514C313.119 433.366 313.298 433.272 313.492 433.254C313.685 433.245 313.875 433.31 314.023 433.436C314.17 433.561 314.265 433.738 314.287 433.931L328.256 602.799C328.264 602.895 328.253 602.993 328.223 603.085C328.193 603.178 328.146 603.263 328.083 603.337C328.02 603.411 327.943 603.472 327.856 603.516C327.77 603.56 327.676 603.586 327.579 603.594H327.446Z" fill="#151515"/>
<path d="M446.708 606.817L493.311 599.722L507.987 443.381L470.878 437.508L446.708 606.817Z" fill="#38a39d"/>
<path opacity="0.2" d="M446.708 606.817L493.311 599.722L507.987 443.381L470.878 437.508L446.708 606.817Z" fill="black"/>
<path d="M288.115 568.663L283.846 468.758C283.74 466.29 284.143 463.827 285.027 461.521C285.912 459.214 287.26 457.114 288.989 455.349C290.718 453.584 292.79 452.193 295.078 451.261C297.366 450.33 299.82 449.877 302.29 449.932L431.914 452.876C434.467 452.933 436.978 453.531 439.282 454.63C441.587 455.73 443.632 457.305 445.283 459.252C446.934 461.199 448.153 463.475 448.861 465.928C449.568 468.381 449.748 470.956 449.387 473.484L435.02 574.08C434.399 578.486 432.173 582.507 428.769 585.373C425.365 588.239 421.023 589.748 416.576 589.61L305.602 585.93C301.046 585.789 296.712 583.931 293.469 580.729C290.226 577.527 288.313 573.217 288.115 568.663Z" fill="#151515"/>
<path d="M302.128 480.593L322.177 481.226L322.015 486.393L309.459 485.996L309.341 489.852L320.984 490.22L320.822 495.166L309.179 494.783L309.032 499.567L321.941 499.98L321.765 505.455L301.348 504.808L302.128 480.593Z" fill="white"/>
<path d="M325.901 505.588L326.666 481.373L339.149 481.771C340.939 481.762 342.72 482.02 344.433 482.536C345.648 482.943 346.687 483.753 347.377 484.833C347.889 485.619 348.233 486.501 348.389 487.426C348.544 488.351 348.507 489.298 348.281 490.208C348.055 491.118 347.643 491.972 347.072 492.716C346.501 493.46 345.783 494.079 344.963 494.533C344.126 494.964 343.227 495.262 342.299 495.416C342.983 495.637 343.633 495.954 344.227 496.358C344.657 496.757 345.042 497.201 345.375 497.683C345.754 498.141 346.09 498.634 346.376 499.155L349.777 506.294L341.327 506.015L337.559 498.493C337.26 497.774 336.819 497.124 336.264 496.579C335.735 496.197 335.105 495.982 334.453 495.961H333.791L333.482 505.779L325.901 505.588ZM333.879 491.427L337.029 491.53C337.698 491.49 338.362 491.396 339.016 491.251C339.509 491.176 339.956 490.918 340.267 490.529C340.586 490.137 340.767 489.651 340.783 489.146C340.811 488.809 340.763 488.47 340.643 488.155C340.524 487.839 340.335 487.554 340.091 487.32C339.269 486.79 338.299 486.537 337.323 486.599L334.026 486.496L333.879 491.427Z" fill="white"/>
<path d="M352.22 506.368L352.986 482.154L365.454 482.551C367.243 482.541 369.025 482.799 370.738 483.316C371.955 483.719 372.995 484.53 373.682 485.613C374.429 486.792 374.78 488.18 374.683 489.572C374.687 490.747 374.373 491.901 373.775 492.912C373.176 493.923 372.315 494.752 371.283 495.313C370.445 495.742 369.546 496.04 368.618 496.196C369.299 496.416 369.943 496.733 370.532 497.139C370.972 497.526 371.363 497.966 371.695 498.449C372.071 498.909 372.406 499.401 372.696 499.921L376.096 507.045L367.647 506.78L363.878 499.258C363.577 498.541 363.137 497.891 362.583 497.345C362.057 496.947 361.417 496.731 360.758 496.726H360.11L359.786 506.559L352.22 506.368ZM360.184 492.207L363.349 492.296C364.018 492.27 364.683 492.182 365.336 492.031C365.825 491.958 366.268 491.7 366.572 491.309C366.902 490.923 367.084 490.433 367.087 489.926C367.119 489.59 367.075 489.252 366.958 488.936C366.841 488.62 366.653 488.334 366.41 488.1C365.589 487.557 364.61 487.303 363.628 487.379L360.346 487.276L360.184 492.207Z" fill="white"/>
<path d="M377.303 495.122C377.189 493.432 377.451 491.738 378.07 490.162C378.689 488.585 379.65 487.166 380.882 486.005C382.115 484.844 383.59 483.97 385.201 483.447C386.811 482.923 388.518 482.763 390.198 482.978C391.893 482.922 393.582 483.207 395.165 483.816C396.748 484.426 398.193 485.347 399.413 486.525C400.501 487.779 401.324 489.241 401.83 490.823C402.336 492.405 402.515 494.072 402.357 495.725C402.368 498.13 401.803 500.503 400.708 502.644C399.715 504.396 398.231 505.818 396.439 506.736C394.327 507.746 391.989 508.192 389.653 508.031C387.324 508.051 385.02 507.548 382.911 506.559C381.116 505.585 379.651 504.099 378.701 502.291C377.588 500.074 377.105 497.594 377.303 495.122ZM384.781 495.387C384.56 497.242 384.981 499.118 385.973 500.701C386.437 501.219 387.001 501.638 387.631 501.934C388.26 502.229 388.943 502.395 389.638 502.421C390.333 502.447 391.026 502.333 391.676 502.086C392.326 501.838 392.92 501.462 393.421 500.98C394.513 499.328 395.03 497.362 394.893 495.387C395.091 493.613 394.659 491.826 393.672 490.338C393.226 489.824 392.674 489.411 392.054 489.129C391.434 488.848 390.761 488.702 390.08 488.704C389.393 488.655 388.704 488.761 388.064 489.016C387.424 489.271 386.85 489.668 386.385 490.176C385.271 491.679 384.704 493.518 384.781 495.387Z" fill="white"/>
<path d="M406.14 508.149L406.905 483.92L419.373 484.317C421.162 484.314 422.942 484.572 424.657 485.083C425.869 485.496 426.906 486.305 427.601 487.379C428.345 488.56 428.695 489.946 428.602 491.339C428.609 492.516 428.297 493.673 427.698 494.687C427.099 495.7 426.236 496.532 425.202 497.094C424.36 497.511 423.463 497.803 422.538 497.963C423.219 498.187 423.863 498.509 424.451 498.92C424.891 499.307 425.282 499.747 425.614 500.23C425.993 500.688 426.328 501.181 426.615 501.702L430.015 508.841L421.566 508.576L417.798 501.039C417.498 500.326 417.057 499.68 416.502 499.14C415.974 498.745 415.336 498.524 414.677 498.508H414.029L413.706 508.34L406.14 508.149ZM414.103 493.974L417.268 494.077C417.937 494.051 418.602 493.963 419.255 493.812C419.743 493.733 420.183 493.476 420.492 493.091C420.839 492.68 421.023 492.156 421.007 491.619C421.039 491.285 420.994 490.949 420.877 490.635C420.76 490.322 420.572 490.039 420.33 489.808C419.509 489.264 418.529 489.01 417.548 489.087L414.265 488.984L414.103 493.974Z" fill="white"/>
<path d="M418.048 549.292C417.772 549.297 417.498 549.243 417.244 549.134C416.99 549.025 416.762 548.863 416.576 548.659L403.976 534.866L390.374 547.29C389.998 547.635 389.499 547.816 388.988 547.794C388.478 547.772 387.997 547.548 387.651 547.172L375.051 533.379L361.45 545.803C361.073 546.148 360.574 546.33 360.064 546.308C359.553 546.285 359.072 546.062 358.726 545.685L346.111 531.892L332.525 544.316C332.327 544.496 332.094 544.633 331.841 544.719C331.587 544.805 331.319 544.838 331.053 544.817C330.541 544.786 330.062 544.559 329.713 544.184L317.113 530.406L303.526 542.815C303.147 543.161 302.646 543.343 302.133 543.321C301.62 543.299 301.137 543.074 300.788 542.697C300.617 542.51 300.484 542.291 300.397 542.053C300.311 541.814 300.272 541.561 300.285 541.308C300.297 541.054 300.36 540.806 300.469 540.577C300.578 540.348 300.732 540.143 300.921 539.974L315.935 526.24C316.315 525.894 316.816 525.712 317.329 525.734C317.842 525.756 318.325 525.98 318.673 526.358L331.274 540.15L344.86 527.727C345.246 527.388 345.746 527.209 346.259 527.226C346.771 527.254 347.252 527.481 347.598 527.859L360.198 541.652L373.8 529.228C373.985 529.055 374.204 528.921 374.441 528.833C374.679 528.746 374.933 528.706 375.186 528.717C375.439 528.728 375.688 528.789 375.917 528.897C376.147 529.005 376.353 529.158 376.523 529.346L389.123 543.139L402.724 530.715C403.101 530.37 403.6 530.188 404.11 530.21C404.621 530.232 405.102 530.456 405.448 530.833L419.52 546.112C419.771 546.393 419.936 546.741 419.993 547.114C420.05 547.487 419.997 547.868 419.841 548.212C419.685 548.555 419.432 548.845 419.114 549.048C418.795 549.25 418.425 549.355 418.048 549.35V549.292Z" fill="white"/>
<path d="M185.104 610.394L175.889 605.993L167.676 565.999L172.136 561.097L185.104 610.394Z" fill="#38a39d"/>
<path d="M185.104 610.394L197.336 603.24L186.856 570.297L172.136 561.097L185.104 610.394Z" fill="#38a39d"/>
<path opacity="0.2" d="M185.104 610.394L197.336 603.24L186.856 570.297L172.136 561.097L185.104 610.394Z" fill="black"/>
<path d="M385.664 617.666H384.648C382.696 617.613 380.845 616.787 379.502 615.37C378.159 613.952 377.434 612.059 377.487 610.107C377.54 608.155 378.366 606.304 379.783 604.961C381.201 603.618 383.094 602.893 385.046 602.946C396.38 603.314 420.374 596.351 434.093 583.044C434.921 582.232 435.93 581.627 437.037 581.278C460.28 574.301 468.92 588.388 469.274 588.991L456.614 596.484C456.659 596.578 456.713 596.666 456.776 596.749C456.644 596.557 453.347 592.333 442.866 594.924C425.658 610.615 399.251 617.666 385.664 617.666Z" fill="#151515"/>
<path d="M384.766 627.44L357.961 625.762L355.856 576.332L391.876 577.672L384.766 627.44Z" fill="#38a39d"/>
<path d="M384.766 627.44L391.037 621.199L394.923 590.39L391.876 577.672L384.766 627.44Z" fill="#38a39d"/>
<path opacity="0.2" d="M384.766 627.44L391.037 621.199L394.923 590.39L391.876 577.672L384.766 627.44Z" fill="black"/>
<path d="M540.092 608.731C539.129 608.73 538.194 608.415 537.427 607.833C522.118 596.204 501.437 575.552 493.503 555.636C493.384 555.348 493.3 555.046 493.252 554.738C489.381 531.716 485.686 483.272 485.524 481.226C485.481 480.646 485.552 480.064 485.734 479.511C485.916 478.959 486.204 478.448 486.584 478.007C487.35 477.116 488.438 476.567 489.609 476.479C490.78 476.391 491.939 476.772 492.829 477.538C493.719 478.304 494.269 479.393 494.356 480.564C494.356 481.05 498.14 529.964 501.908 552.795C509.827 572.166 531.348 592.053 542.8 600.797C543.537 601.356 544.08 602.133 544.352 603.018C544.624 603.903 544.611 604.851 544.315 605.728C544.019 606.605 543.455 607.366 542.702 607.905C541.949 608.444 541.047 608.733 540.121 608.731H540.092Z" fill="#151515"/>
<path d="M560.508 610.954C557.093 610.954 553.222 609.408 548.997 606.361C548.048 605.674 547.412 604.638 547.227 603.481C547.042 602.325 547.324 601.142 548.011 600.193C548.698 599.245 549.734 598.608 550.891 598.423C552.047 598.238 553.23 598.52 554.179 599.207C557.829 601.842 559.816 602.151 560.508 602.151C561.679 602.151 562.803 602.616 563.631 603.444C564.459 604.273 564.924 605.396 564.924 606.567C564.924 607.738 564.459 608.861 563.631 609.69C562.803 610.518 561.679 610.983 560.508 610.983V610.954Z" fill="#151515"/>
<path d="M550.234 606.229C554.959 592.2 574.33 594.968 581.013 597.058C586.722 598.715 592.197 601.089 597.308 604.124C600.915 606.479 600.973 610.438 596.16 612.691C590.272 615.458 575.316 613 575.316 613C583.03 616.371 575.317 621.832 561.759 616.474C557.358 614.737 548.57 611.381 550.234 606.229Z" fill="#38a39d"/>
<path d="M503.218 487.232C501.466 499.155 491.589 507.943 483.552 506.765C475.515 505.588 475.191 494.989 476.943 483.007C478.694 471.025 481.874 462.399 489.911 463.577C497.948 464.755 504.97 475.353 503.218 487.232Z" fill="#151515"/>
<path d="M308.943 439.686C309.61 439.686 310.15 439.146 310.15 438.479C310.15 437.813 309.61 437.272 308.943 437.272C308.277 437.272 307.736 437.813 307.736 438.479C307.736 439.146 308.277 439.686 308.943 439.686Z" fill="#151515"/>
<path d="M321.205 447.164C321.205 447.403 321.134 447.636 321.002 447.835C320.869 448.033 320.681 448.188 320.46 448.279C320.239 448.371 319.997 448.395 319.763 448.348C319.528 448.301 319.313 448.186 319.145 448.018C318.976 447.849 318.861 447.634 318.814 447.4C318.768 447.165 318.792 446.923 318.883 446.702C318.974 446.482 319.129 446.293 319.327 446.161C319.526 446.028 319.759 445.957 319.998 445.957C320.318 445.957 320.625 446.084 320.852 446.311C321.078 446.537 321.205 446.844 321.205 447.164Z" fill="#151515"/>
<path d="M322.559 589.801C322.559 590.04 322.489 590.273 322.356 590.472C322.223 590.67 322.035 590.825 321.814 590.916C321.594 591.007 321.351 591.031 321.117 590.985C320.883 590.938 320.668 590.823 320.499 590.654C320.33 590.486 320.215 590.271 320.168 590.036C320.122 589.802 320.146 589.56 320.237 589.339C320.329 589.118 320.483 588.93 320.682 588.797C320.88 588.665 321.114 588.594 321.352 588.594C321.672 588.594 321.979 588.721 322.206 588.947C322.432 589.174 322.559 589.481 322.559 589.801Z" fill="#151515"/>
<path d="M333.614 598.501C333.614 598.739 333.543 598.973 333.411 599.171C333.278 599.37 333.089 599.524 332.869 599.616C332.648 599.707 332.406 599.731 332.171 599.684C331.937 599.638 331.722 599.523 331.553 599.354C331.385 599.185 331.27 598.97 331.223 598.736C331.177 598.502 331.2 598.259 331.292 598.039C331.383 597.818 331.538 597.63 331.736 597.497C331.935 597.364 332.168 597.293 332.407 597.293C332.727 597.293 333.034 597.421 333.26 597.647C333.487 597.873 333.614 598.18 333.614 598.501Z" fill="#151515"/>
<path d="M121.455 612.97C119.336 612.871 117.266 612.297 115.398 611.291C113.531 610.285 111.913 608.871 110.665 607.156C110.604 607.077 110.559 606.986 110.534 606.89C110.509 606.793 110.504 606.692 110.519 606.594C110.534 606.495 110.569 606.4 110.622 606.315C110.675 606.231 110.745 606.158 110.827 606.101C110.909 606.044 111.001 606.004 111.099 605.984C111.197 605.964 111.298 605.964 111.396 605.984C111.494 606.004 111.586 606.044 111.668 606.102C111.75 606.159 111.819 606.232 111.872 606.317C114.625 610.291 120.704 612.396 123.354 611.145C123.619 611.032 123.855 610.861 124.045 610.644C122.707 610.055 121.534 609.145 120.63 607.995C119.726 606.845 119.12 605.49 118.864 604.05C118.525 602.18 118.261 599.634 119.791 599.31C121.911 598.839 124.678 603.947 125.679 607.818C125.861 608.459 125.926 609.127 125.871 609.791C126.72 610.044 127.613 610.114 128.491 609.997C128.887 609.966 129.272 609.854 129.621 609.666C129.971 609.479 130.278 609.22 130.522 608.908C129.554 608.177 128.75 607.249 128.164 606.187C127.578 605.124 127.223 603.949 127.122 602.74C126.563 598.707 126.989 598.015 127.431 597.661C127.574 597.552 127.745 597.484 127.924 597.466C128.104 597.448 128.285 597.48 128.447 597.558C130.022 598.221 131.921 603.932 132.289 607.171C132.333 607.508 132.333 607.849 132.289 608.186C132.923 608.43 133.596 608.56 134.276 608.569C135.524 608.618 136.759 608.295 137.823 607.642C137.617 607.509 137.426 607.362 137.235 607.215C135.763 605.905 135.085 603.814 135.35 600.841C135.557 598.53 136.072 597.264 136.999 596.867C137.298 596.747 137.626 596.716 137.942 596.779C138.258 596.841 138.549 596.995 138.78 597.22C139.774 598.317 140.516 599.618 140.956 601.031C141.396 602.445 141.522 603.937 141.327 605.404C141.199 606.015 140.943 606.592 140.576 607.097C143.285 607.568 147.082 606.803 150.365 605.993C150.461 605.97 150.562 605.966 150.66 605.981C150.758 605.997 150.852 606.032 150.937 606.084C151.022 606.136 151.095 606.204 151.154 606.284C151.212 606.365 151.254 606.456 151.277 606.552C151.301 606.649 151.305 606.749 151.289 606.847C151.273 606.946 151.239 607.04 151.187 607.125C151.135 607.209 151.067 607.283 150.986 607.341C150.906 607.4 150.815 607.442 150.718 607.465C146.729 608.451 142.431 609.261 139.398 608.378C137.918 609.503 136.106 610.104 134.246 610.085C133.421 610.074 132.604 609.92 131.832 609.629C131.49 610.158 131.03 610.602 130.489 610.926C129.948 611.251 129.34 611.446 128.712 611.498C127.605 611.641 126.481 611.545 125.414 611.219C125.071 611.797 124.557 612.255 123.942 612.529C123.153 612.847 122.306 612.998 121.455 612.97ZM120.189 600.782C119.985 601.783 120.026 602.818 120.307 603.8C120.514 604.977 121.003 606.086 121.73 607.034C122.458 607.983 123.404 608.741 124.487 609.246C124.466 608.897 124.407 608.552 124.31 608.216C123.162 604.006 120.954 601.106 120.189 600.782ZM128.388 599.501C128.397 600.517 128.481 601.53 128.638 602.534C128.8 604.328 129.593 606.008 130.876 607.274C130.513 604.556 129.671 601.924 128.388 599.501ZM137.647 598.221C137.647 598.221 137.087 598.501 136.881 600.959C136.675 603.417 137.102 605.11 138.25 606.096C138.522 606.316 138.818 606.504 139.133 606.655C139.521 606.241 139.794 605.734 139.928 605.183C140.191 602.866 139.565 600.536 138.177 598.662C137.868 598.28 137.691 598.221 137.647 598.221Z" fill="#151515"/>
<path d="M336.897 624.099L340.886 617.18L336.897 610.262H332.628L335.042 617.18L332.628 624.099H336.897Z" fill="#151515"/>
<path d="M332.908 620.787C332.416 620.818 331.922 620.748 331.458 620.582C330.994 620.415 330.569 620.155 330.21 619.818C329.85 619.48 329.564 619.073 329.368 618.621C329.172 618.168 329.071 617.681 329.071 617.188C329.071 616.695 329.172 616.207 329.368 615.754C329.564 615.302 329.85 614.895 330.21 614.557C330.569 614.22 330.994 613.96 331.458 613.793C331.922 613.627 332.416 613.557 332.908 613.588L326.136 612.234L324.326 617.71L327.358 622.332L332.908 620.787Z" fill="#151515"/>
<path d="M333.496 610.262H325.503L321.514 617.18L325.503 624.099H333.496L337.485 617.18L333.496 610.262ZM329.507 620.787C328.793 620.789 328.095 620.58 327.5 620.186C326.905 619.791 326.44 619.229 326.165 618.57C325.89 617.912 325.816 617.186 325.954 616.486C326.091 615.785 326.433 615.141 326.937 614.635C327.441 614.129 328.084 613.785 328.784 613.644C329.483 613.504 330.209 613.574 330.869 613.847C331.529 614.119 332.093 614.582 332.49 615.175C332.887 615.768 333.099 616.466 333.099 617.18C333.099 618.134 332.721 619.049 332.048 619.725C331.375 620.401 330.461 620.783 329.507 620.787Z" fill="#38a39d"/>
<path d="M615.134 609.791L612.175 604.653L615.134 599.516H618.299L616.518 604.653L618.299 609.791H615.134Z" fill="#38a39d"/>
<path d="M618.093 607.332C618.46 607.36 618.83 607.311 619.177 607.189C619.525 607.067 619.844 606.875 620.114 606.624C620.384 606.373 620.6 606.07 620.747 605.732C620.894 605.394 620.97 605.029 620.97 604.661C620.97 604.292 620.894 603.928 620.747 603.59C620.6 603.252 620.384 602.948 620.114 602.698C619.844 602.447 619.525 602.254 619.177 602.133C618.83 602.011 618.46 601.962 618.093 601.989L623.127 600.988L624.467 605.051L622.229 608.481L618.093 607.332Z" fill="#38a39d"/>
<path d="M617.666 599.516H623.554L626.498 604.653L623.554 609.791H617.666L614.722 604.653L617.666 599.516ZM620.61 607.332C621.14 607.335 621.66 607.181 622.102 606.888C622.545 606.596 622.891 606.178 623.096 605.689C623.301 605.2 623.356 604.661 623.254 604.14C623.152 603.619 622.898 603.14 622.524 602.764C622.15 602.388 621.673 602.132 621.153 602.027C620.633 601.922 620.093 601.975 619.603 602.177C619.112 602.379 618.693 602.723 618.398 603.164C618.103 603.604 617.946 604.123 617.946 604.653C617.944 605.006 618.012 605.355 618.146 605.681C618.28 606.007 618.477 606.303 618.726 606.552C618.975 606.801 619.271 606.999 619.597 607.133C619.923 607.266 620.272 607.334 620.625 607.332H620.61Z" fill="#151515"/>
<path d="M504.896 616.621H511.549C512.382 616.617 513.18 616.283 513.767 615.693C514.355 615.103 514.685 614.304 514.685 613.471C514.685 612.638 514.355 611.839 513.767 611.248C513.18 610.658 512.382 610.325 511.549 610.321H504.896C504.061 610.321 503.259 610.653 502.669 611.243C502.078 611.834 501.746 612.635 501.746 613.471C501.746 614.306 502.078 615.107 502.669 615.698C503.259 616.289 504.061 616.621 504.896 616.621Z" fill="#151515"/>
<path d="M494.195 610.674C494.812 609.551 495.745 608.633 496.877 608.034C498.01 607.435 499.294 607.18 500.569 607.301C501.845 607.423 503.057 607.915 504.057 608.717C505.056 609.519 505.799 610.596 506.194 611.816C506.588 613.035 506.617 614.343 506.277 615.579C505.937 616.814 505.243 617.923 504.281 618.769C503.318 619.615 502.129 620.16 500.859 620.338C499.59 620.516 498.297 620.319 497.139 619.771C495.547 618.95 494.344 617.533 493.792 615.829C493.241 614.125 493.385 612.272 494.195 610.674Z" fill="#38a39d"/>
<path d="M495.99 619.769L497.814 620.629L504.153 607.181L502.329 606.321L495.99 619.769Z" fill="#151515"/>
</svg>
