<svg width="24" height="24" viewBox="0 0 24 24" fill="none" xmlns="http://www.w3.org/2000/svg">
<g clip-path="url(#clip0_122_1115)">
<path d="M13.6703 22.0001H13.6103C13.3902 21.9868 13.1807 21.9012 13.0143 21.7565C12.8479 21.6118 12.734 21.4162 12.6903 21.2001L11.0003 13.0001L2.80032 11.3101C2.58379 11.2671 2.38757 11.1536 2.24227 10.9874C2.09697 10.8212 2.01074 10.6116 1.99705 10.3913C1.98335 10.1709 2.04294 9.95227 2.16654 9.76935C2.29013 9.58643 2.47078 9.44956 2.68032 9.38006L18.6803 4.05006C18.8599 3.9759 19.0572 3.95567 19.2481 3.99185C19.439 4.02802 19.6153 4.11903 19.7553 4.25374C19.8953 4.38846 19.9931 4.56105 20.0366 4.75042C20.0801 4.93979 20.0675 5.13773 20.0003 5.32006L14.6703 21.3201C14.6007 21.527 14.4653 21.7056 14.2847 21.8283C14.1042 21.9511 13.8884 22.0114 13.6703 22.0001ZM6.87032 10.1001L12.0603 11.1601C12.2543 11.1975 12.4329 11.2915 12.5735 11.4304C12.7141 11.5692 12.8104 11.7465 12.8503 11.9401L13.9003 17.1301L17.4203 6.58006L6.87032 10.1001Z" fill="white"/>
</g>
<defs>
<clipPath id="clip0_122_1115">
<rect width="24" height="24" fill="white"/>
</clipPath>
</defs>
</svg>
