<svg width="109" height="49" viewBox="0 0 109 49" fill="none" xmlns="http://www.w3.org/2000/svg">
<g clip-path="url(#clip0_130_302)">
<path fill-rule="evenodd" clip-rule="evenodd" d="M74.2909 13.5213C74.4579 13.5488 75.2141 11.8719 75.3399 11.616C76.3764 9.50695 77.5964 8.3223 79.4106 6.81378C81.7426 4.87472 84.8951 3.71365 87.9102 3.54005C94.2032 3.17774 100.079 6.45198 102.969 12.0639C109.566 24.8706 96.8214 39.0645 83.3678 33.916C77.8174 31.7919 73.6647 26.3315 73.3556 20.3653C72.9881 13.2762 71.5914 8.72289 65.979 4.12606C61.044 0.0840392 53.4195 -0.966821 47.4674 1.14502C44.6494 2.14492 42.5105 3.79169 40.3573 5.81733C39.6581 6.47526 37.8901 8.24925 37.7862 9.17577C37.7058 9.89238 39.2473 13.556 39.3044 13.5762C39.3758 13.5774 40.3512 11.7356 40.4604 11.551C43.5836 6.27119 48.3064 3.37102 54.6579 3.53091C61.1257 3.69377 67.2198 8.25433 69.0576 14.5006C69.993 17.68 69.6756 21.4541 70.8417 25.4052C71.7515 28.4877 73.4047 31.0101 75.764 33.1744C81.0198 37.9957 88.0079 39.8572 94.8815 37.5589C100.829 35.5702 105.666 30.8272 107.487 24.7868C109.502 18.1016 107.595 10.6912 102.708 5.74216C97.8584 0.831263 90.3647 -1.14777 83.726 0.729794C80.6571 1.59775 77.9824 3.17291 75.6826 5.37436C75.1191 5.91366 73.0965 8.24508 72.8102 8.86335C72.5278 9.47299 73.0828 10.6566 73.3216 11.2858C73.6137 12.0556 73.8802 12.8045 74.2909 13.5213Z" fill="#38A39D"/>
<path fill-rule="evenodd" clip-rule="evenodd" d="M33.9756 24.9216L33.9603 24.9102C33.8761 24.9055 33.0074 26.6294 32.9114 26.805C32.567 27.4355 32.2018 28.0469 31.7744 28.6252C30.943 29.7505 29.9644 30.766 28.8677 31.6342C26.4045 33.5843 23.4201 34.6959 20.2893 34.9033C13.9285 35.3249 8.06477 32.1484 5.21624 26.4127C2.24414 20.4282 3.06134 13.5867 7.6236 8.66312C12.0325 3.90496 18.8673 2.05689 24.9447 4.62095C30.6015 7.0075 34.5441 12.1061 34.8533 18.3185C35.0503 22.2753 35.2125 24.4052 37.0079 28.005C38.2637 30.523 40.1334 32.7675 42.3681 34.4746C47.633 38.4966 54.6203 39.5606 60.8513 37.2953C63.4651 36.345 66.0991 34.6509 67.9624 32.5753C68.6319 31.8295 70.3724 30.0889 70.4414 29.1283C70.4868 28.4974 69.9154 27.588 69.6537 26.9788C69.3513 26.2749 69.1266 25.6091 68.7908 24.9031L67.7234 26.9928C64.7539 32.1738 59.5974 35.1632 53.513 34.9729C46.9374 34.7671 41.0921 30.2449 39.125 23.9794C37.1643 17.7345 39.9652 12.8632 32.3849 5.33863C27.4247 0.414887 19.9004 -1.21376 13.286 0.919304C7.14343 2.90029 2.57814 7.59001 0.780521 13.7937C-1.15063 20.4582 0.523535 27.9737 5.56062 32.842C10.6091 37.7212 17.7313 39.7042 24.5415 37.7521C27.5748 36.8826 30.3053 35.2943 32.5495 33.0748C33.2188 32.4129 35.0393 30.3507 35.4 29.5662C35.7666 28.7686 35.1778 27.9838 34.8542 27.2498C34.5111 26.4712 34.2888 25.7021 33.9756 24.9216Z" fill="#38A39D"/>
<path fill-rule="evenodd" clip-rule="evenodd" d="M89.0456 17.85C88.5254 17.506 85.7222 13.4695 84.9988 12.4846L83.749 10.6046L79.8628 10.583C79.8 14.8134 79.8631 19.2874 79.8631 23.5614C79.8631 24.2764 79.8575 24.9937 79.8635 25.7084C79.8664 26.0486 79.8008 27.6919 79.9094 27.8383C80.0516 27.929 82.7462 27.9249 83.1436 27.9128L83.1483 15.5754C83.7231 16.0009 84.1487 16.757 84.5982 17.3711C85.2906 18.3173 88.3186 23.0279 89.0945 22.849C89.8384 22.6776 94.1054 15.9183 94.8542 15.6039L94.8789 27.9308L98.1773 27.9329L98.1844 10.5631L94.3897 10.5654C94.2478 10.6869 93.3123 12.1325 93.12 12.4184C92.7102 13.0278 92.2361 13.6686 91.8081 14.255C91.4044 14.8085 89.415 17.6373 89.0456 17.85H89.0456Z" fill="#38A39D"/>
<path fill-rule="evenodd" clip-rule="evenodd" d="M46.6076 27.8905L49.8635 27.9286L49.8564 21.0169L58.3362 20.922L58.3591 27.853C58.5586 27.9157 61.2795 27.9551 61.5873 27.9185L61.5925 10.6137C61.422 10.5614 58.5361 10.5565 58.3606 10.6078L58.3491 17.8867L49.8678 17.8815C49.8184 17.0209 49.9105 10.9114 49.8285 10.5584L46.6375 10.5711C46.5565 10.8499 46.6061 22.2186 46.6061 23.5615C46.6061 24.9841 46.5619 26.477 46.6076 27.8906V27.8905Z" fill="#38A39D"/>
<path fill-rule="evenodd" clip-rule="evenodd" d="M11.6777 27.9131L14.9356 27.9161L14.9471 20.9577L23.4552 20.9374L23.4465 27.9188L26.6735 27.9168L26.6788 10.6155L23.4531 10.5668L23.446 17.8492L14.9979 17.8844L14.9396 10.6252L11.6786 10.5602L11.6777 27.9131Z" fill="#38A39D"/>
<path fill-rule="evenodd" clip-rule="evenodd" d="M31.338 45.252C31.4932 45.3812 31.8119 46.2591 31.909 46.5133L30.7865 46.5085L31.3381 45.252H31.338ZM27.0026 44.4042C28.4129 44.2172 28.3465 45.7269 26.9946 45.5561L27.0026 44.4042ZM28.1829 46.0294C28.4985 45.835 28.8108 45.6193 28.8994 45.218C29.2775 43.5057 27.1712 43.5486 26.0068 43.6244L26.0214 47.8738L26.9733 47.8703C27.0712 47.447 26.8792 46.5185 27.0409 46.1999C27.4082 46.3053 28.0656 47.7437 28.2829 47.8536C28.5755 47.8864 29.9893 47.8954 30.2301 47.8379L30.4817 47.2579L32.2394 47.2796L32.4804 47.8639L33.5182 47.8692C33.4374 47.4206 32.6998 46.1134 32.4657 45.6166C32.3567 45.3853 31.5723 43.5954 31.3677 43.4905L29.2872 47.608C29.2023 47.5365 28.2139 46.2147 28.183 46.0294H28.1829Z" fill="#38A39D"/>
<path fill-rule="evenodd" clip-rule="evenodd" d="M22.8927 46.501C22.9515 46.3212 23.3808 45.3212 23.466 45.2248L23.9969 46.5184L22.8927 46.501ZM19.99 45.6542C20.186 45.2453 21.4961 43.8558 21.5432 43.6169L20.3739 43.6165L18.9488 45.4381L18.9453 43.6245L17.9385 43.6455L17.939 47.8666L18.9486 47.8502L18.9747 45.9417L20.4664 47.8664L22.3169 47.8428L22.6075 47.256L24.3304 47.2729L24.6124 47.8654L25.6393 47.8671C25.4997 47.3598 24.8472 46.1956 24.58 45.6358C24.4142 45.2884 23.6868 43.61 23.4525 43.4972L21.4711 47.5132C21.346 47.4478 20.0481 45.7658 19.9901 45.6543L19.99 45.6542Z" fill="#38A39D"/>
<path fill-rule="evenodd" clip-rule="evenodd" d="M78.6009 46.2134C78.2605 45.8 77.1497 43.5946 76.8349 43.5033C76.7349 43.769 75.9149 47.6146 75.915 47.857L76.8369 47.8677C77.0077 47.5017 77.1 46.2048 77.2655 45.9525C77.6175 46.2807 78.2616 47.7718 78.6009 48.0212C78.8848 47.7861 79.5787 46.1952 79.8408 45.991L80.229 47.8515L81.2342 47.8675C81.2148 47.477 80.3742 43.6025 80.27 43.4767C79.9806 43.6943 78.8278 46.0852 78.6008 46.2133L78.6009 46.2134Z" fill="#38A39D"/>
<path fill-rule="evenodd" clip-rule="evenodd" d="M8.73086 45.1622L7.07776 45.1778L7.07606 43.6409L6.0681 43.6261L6.06641 47.845L7.06748 47.8677L7.07524 46.1019L8.71282 46.0886L8.73276 47.8478L9.73291 47.8681L9.73573 43.6239L8.75264 43.619L8.73086 45.1622Z" fill="#38A39D"/>
<path fill-rule="evenodd" clip-rule="evenodd" d="M91.8207 45.6517C91.9448 45.3588 93.397 43.875 93.4674 43.617L92.2327 43.6099L90.7307 45.4337L90.728 43.6234L89.6562 43.6427L89.6647 47.8677L90.7273 47.868L90.7563 45.9468L92.3338 47.8657L93.5835 47.8577C93.4678 47.5253 92.1382 46.128 91.8206 45.6516L91.8207 45.6517Z" fill="#38A39D"/>
<path fill-rule="evenodd" clip-rule="evenodd" d="M86.6207 44.4108C88.059 44.1584 88.0681 45.7558 86.6158 45.5567L86.6207 44.4108ZM87.8752 46.0444C88.2285 45.7699 88.469 45.7394 88.621 45.235C88.7536 44.795 88.6391 44.3499 88.3104 44.0489C87.714 43.5027 86.3372 43.5652 85.5654 43.6344L85.5688 47.8682L86.6098 47.8537C86.6278 47.4814 86.5413 46.4754 86.6587 46.2047C86.8749 46.2393 86.7615 46.1804 86.8966 46.3707L87.9891 47.868L89.1525 47.8582C89.0358 47.4718 87.9293 46.3349 87.8753 46.0444H87.8752Z" fill="#38A39D"/>
<path fill-rule="evenodd" clip-rule="evenodd" d="M99.079 46.9653C99.135 46.6375 101.06 44.096 101.232 43.6239L97.6729 43.6392C97.6267 43.9122 97.518 44.215 97.5361 44.5017L99.4891 44.5192C99.413 44.8602 97.4646 47.4241 97.3096 47.8683L101.07 47.8762C101.187 47.657 101.243 47.2598 101.252 46.9768L99.079 46.9653L99.079 46.9653Z" fill="#38A39D"/>
<path fill-rule="evenodd" clip-rule="evenodd" d="M82.9832 44.4936L84.7078 44.486L84.6945 43.6832C84.4578 43.5536 82.3491 43.6231 81.9175 43.6226L81.9141 47.8686L84.7271 47.8535L84.7038 46.9835L82.9599 46.9644L82.9704 46.1418L84.4567 46.1168L84.4522 45.2677L82.9668 45.2615L82.9832 44.4935V44.4936Z" fill="#38A39D"/>
<path fill-rule="evenodd" clip-rule="evenodd" d="M95.0965 44.4936L96.823 44.4865L96.8165 43.625L94.0338 43.6229L94.0322 47.8688L96.847 47.8542L96.8227 46.9809L95.0844 46.98L95.106 46.1401L96.5718 46.1174L96.5662 45.267L95.0823 45.2608L95.0965 44.4936Z" fill="#38A39D"/>
<path fill-rule="evenodd" clip-rule="evenodd" d="M41.4103 45.1796C41.281 45.0979 41.3807 44.0651 41.3486 43.6553L40.533 43.6464L40.5273 47.8405L41.3499 47.8397L41.3544 46.0951C41.5865 46.0092 42.5993 46.0072 42.8233 46.0858L42.8384 47.848L43.6851 47.8192L43.6834 43.6233L42.8487 43.6179C42.7496 43.9463 42.8402 44.7617 42.8137 45.1567L41.4103 45.1797V45.1796Z" fill="#38A39D"/>
<path fill-rule="evenodd" clip-rule="evenodd" d="M48.8931 46.0351C50.1875 45.77 50.1777 47.3406 48.8915 47.082L48.8931 46.0351ZM48.9149 45.2918C48.8639 45.1115 48.8727 44.5342 48.9068 44.3406C49.2878 44.3046 49.7816 44.3279 49.7506 44.8393C49.7236 45.2863 49.2778 45.3397 48.9149 45.2918ZM49.9891 45.6022C50.2433 45.3558 50.4685 45.3253 50.5353 44.881C50.7632 43.3669 48.9997 43.6112 48.0833 43.6206L48.0713 47.8663C48.7614 47.8798 49.949 47.9995 50.4152 47.4168C50.65 47.1233 50.7259 46.6687 50.6244 46.3075C50.5065 45.8881 50.3277 45.8066 49.9891 45.6022H49.9891Z" fill="#38A39D"/>
<path fill-rule="evenodd" clip-rule="evenodd" d="M55.652 44.4019C56.8918 44.2565 56.8081 45.7033 55.6401 45.5541L55.652 44.4019ZM56.6713 46.0375C56.9837 45.8025 57.1902 45.643 57.293 45.2258C57.3837 44.8579 57.327 44.4185 57.0941 44.1244C56.575 43.4686 55.5967 43.5982 54.7832 43.6305L54.7945 47.865L55.6367 47.8673L55.663 46.2214C55.8555 46.2279 55.7694 46.1724 55.8793 46.3871L56.758 47.8624L57.7428 47.8689C57.592 47.4056 56.7481 46.4129 56.6713 46.0375Z" fill="#38A39D"/>
<path fill-rule="evenodd" clip-rule="evenodd" d="M65.635 44.4099C66.8637 44.2112 66.7951 45.7333 65.6297 45.5558L65.635 44.4099ZM66.6661 46.0257C67.3006 45.6034 67.5893 44.7677 67.0799 44.1049C66.5888 43.4659 65.5151 43.6137 64.7656 43.6277L64.7709 47.8662L65.6154 47.8481C65.6548 47.4734 65.5589 46.4511 65.6738 46.2029C65.8625 46.2693 66.0734 46.7326 66.2359 47.0013C66.3968 47.2674 66.5827 47.5683 66.7285 47.861L67.7433 47.8692C67.5603 47.4597 66.7004 46.3273 66.6662 46.0257H66.6661Z" fill="#38A39D"/>
<path fill-rule="evenodd" clip-rule="evenodd" d="M11.6831 46.5109C11.704 46.3158 12.0916 45.4232 12.2139 45.2538C12.3292 45.3592 12.7263 46.3354 12.7426 46.5201L11.6831 46.5108L11.6831 46.5109ZM11.3582 47.2577L13.0896 47.2612L13.362 47.8636L14.4129 47.8623C14.2614 47.453 12.3999 43.6145 12.2615 43.4949C12.1145 43.6598 10.1457 47.6219 10.084 47.8683L11.0744 47.8567L11.3581 47.2577H11.3582Z" fill="#38A39D"/>
<path fill-rule="evenodd" clip-rule="evenodd" d="M62.6023 45.2235L63.044 46.5204L62.0944 46.4973L62.6023 45.2235ZM61.8559 47.2547L63.3475 47.2691L63.5801 47.8622L64.4903 47.8632C64.368 47.4761 62.734 43.612 62.6239 43.4858C62.5312 43.6033 60.871 47.3493 60.7236 47.8627L61.59 47.8655L61.8559 47.2548V47.2547Z" fill="#38A39D"/>
<path fill-rule="evenodd" clip-rule="evenodd" d="M52.602 45.2485C52.7106 45.4366 53.0301 46.3054 53.0441 46.5092L52.1307 46.5188C52.1586 46.2966 52.4751 45.3987 52.602 45.2485H52.602ZM50.749 47.8509L51.6058 47.864L51.8332 47.2651L53.366 47.2578L53.5891 47.8713L54.4824 47.8652C54.4079 47.4498 52.9585 44.2516 52.6685 43.4911C52.5 43.5938 51.811 45.3155 51.6784 45.627C51.4925 46.064 50.8015 47.5093 50.749 47.8509Z" fill="#38A39D"/>
<path fill-rule="evenodd" clip-rule="evenodd" d="M45.8452 45.2467C45.9821 45.3988 46.2861 46.286 46.3124 46.5214L45.3679 46.4943L45.8452 45.2468V45.2467ZM45.1069 47.2545L46.6188 47.2594L46.8385 47.8654L47.7461 47.8539C47.6991 47.5715 45.9711 43.5545 45.8685 43.4789L44.0078 47.8646L44.8756 47.8422L45.107 47.2545H45.1069Z" fill="#38A39D"/>
<path fill-rule="evenodd" clip-rule="evenodd" d="M14.7246 47.8676L17.4222 47.8503L17.418 46.9676L15.7559 46.9652L15.7459 43.6241L14.7301 43.6426L14.7246 47.8676Z" fill="#38A39D"/>
<path fill-rule="evenodd" clip-rule="evenodd" d="M58.1602 47.8673L60.4933 47.8522L60.4789 46.9678L59.0704 46.9648C58.9378 46.4623 59.0733 44.3571 59.037 43.6272L58.1608 43.6372L58.1602 47.8673Z" fill="#38A39D"/>
<path fill-rule="evenodd" clip-rule="evenodd" d="M101.997 47.8742L103.065 47.8714L103.045 43.6193L101.986 43.6244L101.997 47.8742Z" fill="#38A39D"/>
<path fill-rule="evenodd" clip-rule="evenodd" d="M71.6183 47.7233L71.9484 47.7168L71.9417 43.9075L71.5977 43.9115L71.6183 47.7233Z" fill="#38A39D"/>
<path fill-rule="evenodd" clip-rule="evenodd" d="M36.8677 47.7124L37.1979 47.6932L37.1946 43.9203L36.8457 43.9235L36.8677 47.7124Z" fill="#38A39D"/>
<path fill-rule="evenodd" clip-rule="evenodd" d="M48.8916 47.082C50.1777 47.3406 50.1876 45.77 48.8932 46.0351L48.8916 47.082Z" fill="#FAFFF9"/>
<path fill-rule="evenodd" clip-rule="evenodd" d="M55.6406 45.554C56.8086 45.7033 56.8923 44.2565 55.6525 44.4019L55.6406 45.554Z" fill="#FAFFF9"/>
<path fill-rule="evenodd" clip-rule="evenodd" d="M43.6851 47.8192L42.8384 47.848L42.8233 46.0858C42.5993 46.0073 41.5865 46.0092 41.3544 46.0951L41.3499 47.8397L40.5273 47.8405L40.533 43.6464L41.3486 43.6553C41.3807 44.0651 41.2809 45.0979 41.4103 45.1796L41.3829 43.5927L40.499 43.6077C40.4082 43.8758 40.4095 47.6291 40.501 47.9025L41.4012 47.8818L41.4135 46.116L42.7872 46.1312L42.8116 47.8715C42.9587 47.9179 43.098 47.902 43.2616 47.9021C43.4299 47.9021 43.6296 47.9447 43.6851 47.8192Z" fill="#88BDE4"/>
<path fill-rule="evenodd" clip-rule="evenodd" d="M48.9149 45.2917C49.2778 45.3396 49.7236 45.2863 49.7506 44.8393C49.7816 44.3279 49.2878 44.3046 48.9068 44.3406C48.8727 44.5341 48.8639 45.1115 48.9149 45.2917Z" fill="#FAFFF9"/>
<path fill-rule="evenodd" clip-rule="evenodd" d="M52.6021 45.2485C52.4753 45.3986 52.1587 46.2966 52.1309 46.5188L53.0442 46.5092C53.0303 46.3054 52.7108 45.4366 52.6022 45.2485H52.6021Z" fill="#F9FEFE"/>
<path fill-rule="evenodd" clip-rule="evenodd" d="M45.3672 46.4943L46.3117 46.5213C46.2854 46.2859 45.9814 45.3988 45.8445 45.2466L45.3672 46.4942V46.4943Z" fill="#F9FEFE"/>
<path fill-rule="evenodd" clip-rule="evenodd" d="M62.0947 46.4972L63.0443 46.5204L62.6026 45.2234L62.0947 46.4972Z" fill="#FAFFF9"/>
</g>
<defs>
<clipPath id="clip0_130_302">
<rect width="108.78" height="49" fill="white"/>
</clipPath>
</defs>
</svg>
