<svg width="24" height="24" viewBox="0 0 24 24" fill="none" xmlns="http://www.w3.org/2000/svg">
<path d="M21.999 22L19.999 20M11.499 21C12.7466 21 13.9819 20.7543 15.1345 20.2769C16.2871 19.7994 17.3344 19.0997 18.2165 18.2175C19.0987 17.3354 19.7985 16.2881 20.2759 15.1355C20.7533 13.9829 20.999 12.7476 20.999 11.5C20.999 10.2524 20.7533 9.0171 20.2759 7.86451C19.7985 6.71191 19.0987 5.66464 18.2165 4.78249C17.3344 3.90033 16.2871 3.20056 15.1345 2.72314C13.9819 2.24572 12.7466 2 11.499 2C8.97947 2 6.56311 3.00089 4.78151 4.78249C2.99991 6.56408 1.99902 8.98044 1.99902 11.5C1.99902 14.0196 2.99991 16.4359 4.78151 18.2175C6.56311 19.9991 8.97947 21 11.499 21V21Z" stroke="#272727" stroke-width="1.5" stroke-linecap="round" stroke-linejoin="round"/>
</svg>
