<svg width="24" height="24" viewBox="0 0 24 24" fill="none" xmlns="http://www.w3.org/2000/svg">
<g clip-path="url(#clip0_138_728)">
<path d="M17.9995 15.0001C17.2139 15.0008 16.4599 15.3095 15.8995 15.8601L7.99955 12.3401V12.0001V11.6701L15.8995 8.14012C16.3944 8.62513 17.0418 8.92392 17.7319 8.98573C18.4221 9.04753 19.1123 8.86855 19.6854 8.47918C20.2585 8.08981 20.6792 7.51406 20.876 6.8497C21.0728 6.18535 21.0336 5.47337 20.7649 4.83467C20.4963 4.19597 20.0149 3.66994 19.4025 3.34593C18.79 3.02191 18.0843 2.91988 17.4051 3.05716C16.726 3.19445 16.1153 3.56259 15.6768 4.09905C15.2383 4.63552 14.999 5.30723 14.9995 6.00011V6.34011L7.09955 9.86011C6.67791 9.44587 6.14329 9.16541 5.56281 9.05394C4.98233 8.94247 4.38186 9.00497 3.83677 9.23358C3.29169 9.46219 2.82628 9.84673 2.49898 10.3389C2.17168 10.8311 1.99707 11.409 1.99707 12.0001C1.99707 12.5912 2.17168 13.1691 2.49898 13.6613C2.82628 14.1535 3.29169 14.538 3.83677 14.7666C4.38186 14.9953 4.98233 15.0578 5.56281 14.9463C6.14329 14.8348 6.67791 14.5544 7.09955 14.1401L14.9995 17.6701V18.0001C14.9995 18.5935 15.1755 19.1735 15.5051 19.6668C15.8348 20.1602 16.3033 20.5447 16.8515 20.7718C17.3997 20.9988 18.0029 21.0582 18.5848 20.9425C19.1668 20.8267 19.7013 20.541 20.1209 20.1214C20.5404 19.7019 20.8261 19.1673 20.9419 18.5854C21.0577 18.0034 20.9982 17.4002 20.7712 16.8521C20.5441 16.3039 20.1596 15.8354 19.6663 15.5057C19.1729 15.1761 18.5929 15.0001 17.9995 15.0001ZM17.9995 5.00011C18.1973 5.00011 18.3907 5.05876 18.5551 5.16865C18.7196 5.27853 18.8477 5.43471 18.9234 5.61743C18.9991 5.80016 19.0189 6.00122 18.9803 6.1952C18.9417 6.38919 18.8465 6.56737 18.7067 6.70722C18.5668 6.84707 18.3886 6.94231 18.1946 6.9809C18.0007 7.01949 17.7996 6.99968 17.6169 6.92399C17.4341 6.84831 17.278 6.72013 17.1681 6.55568C17.0582 6.39124 16.9995 6.1979 16.9995 6.00011C16.9995 5.7349 17.1049 5.48054 17.2924 5.29301C17.48 5.10547 17.7343 5.00011 17.9995 5.00011ZM4.99955 13.0001C4.80176 13.0001 4.60842 12.9415 4.44397 12.8316C4.27953 12.7217 4.15135 12.5655 4.07567 12.3828C3.99998 12.2001 3.98017 11.999 4.01876 11.805C4.05734 11.611 4.15259 11.4329 4.29244 11.293C4.43229 11.1532 4.61047 11.0579 4.80445 11.0193C4.99844 10.9807 5.1995 11.0005 5.38223 11.0762C5.56495 11.1519 5.72113 11.2801 5.83101 11.4445C5.9409 11.609 5.99955 11.8023 5.99955 12.0001C5.99955 12.2653 5.89419 12.5197 5.70665 12.7072C5.51912 12.8948 5.26476 13.0001 4.99955 13.0001ZM17.9995 19.0001C17.8018 19.0001 17.6084 18.9415 17.444 18.8316C17.2795 18.7217 17.1514 18.5655 17.0757 18.3828C17 18.2001 16.9802 17.999 17.0188 17.805C17.0573 17.611 17.1526 17.4329 17.2924 17.293C17.4323 17.1532 17.6105 17.0579 17.8045 17.0193C17.9984 16.9807 18.1995 17.0005 18.3822 17.0762C18.565 17.1519 18.7211 17.2801 18.831 17.4445C18.9409 17.609 18.9995 17.8023 18.9995 18.0001C18.9995 18.2653 18.8942 18.5197 18.7067 18.7072C18.5191 18.8948 18.2648 19.0001 17.9995 19.0001Z" fill="white"/>
</g>
<defs>
<clipPath id="clip0_138_728">
<rect width="24" height="24" fill="white"/>
</clipPath>
</defs>
</svg>
