<svg width="24" height="24" viewBox="0 0 24 24" fill="none" xmlns="http://www.w3.org/2000/svg">
<path d="M4.31992 1.91998C2.99972 1.91998 1.91992 2.99978 1.91992 4.31998V19.68C1.91992 21.0002 2.99972 22.08 4.31992 22.08H19.6799C21.0001 22.08 22.0799 21.0002 22.0799 19.68V4.31998C22.0799 2.99978 21.0001 1.91998 19.6799 1.91998H4.31992ZM4.31992 2.87998H19.6799C20.4823 2.87998 21.1199 3.51763 21.1199 4.31998V19.68C21.1199 20.4823 20.4823 21.12 19.6799 21.12H4.31992C3.51757 21.12 2.87992 20.4823 2.87992 19.68V4.31998C2.87992 3.51763 3.51757 2.87998 4.31992 2.87998ZM12.5005 4.79998C12.3734 4.8 12.2515 4.85044 12.1615 4.94025C12.0715 5.03007 12.0208 5.15191 12.0205 5.27905C12.0205 5.27905 12.0153 7.61915 12.0102 9.96467C12.0077 11.1374 12.0046 12.3114 12.0027 13.1953C12.0008 14.0792 11.9999 14.6385 11.9999 14.685C11.9999 15.5563 11.2086 16.2684 10.3068 16.2684C9.41218 16.2684 8.69805 15.5534 8.69805 14.6587C8.69805 13.7641 9.41218 13.05 10.3068 13.05C10.3371 13.05 10.3982 13.0599 10.5027 13.0725C10.5702 13.0806 10.6385 13.0743 10.7033 13.054C10.7682 13.0337 10.8279 12.9998 10.8787 12.9547C10.9295 12.9096 10.9701 12.8543 10.9979 12.7923C11.0257 12.7304 11.04 12.6632 11.0399 12.5953V10.5787C11.0399 10.4566 10.9934 10.3391 10.9098 10.2501C10.8262 10.1611 10.7118 10.1073 10.5899 10.0997C10.5151 10.095 10.421 10.0856 10.3068 10.0856C7.78702 10.0856 5.73367 12.139 5.73367 14.6587C5.73367 17.1785 7.78702 19.2319 10.3068 19.2319C12.8265 19.2319 14.8799 17.1785 14.8799 14.6587V10.3153C15.5781 10.8737 16.4483 11.2275 17.4093 11.2275C17.5404 11.2275 17.665 11.2197 17.7843 11.2087C17.9035 11.1977 18.0143 11.1426 18.0949 11.0541C18.1756 10.9657 18.2203 10.8503 18.2202 10.7306V8.48905C18.2203 8.36769 18.1744 8.25082 18.0918 8.16194C18.0092 8.07306 17.896 8.01876 17.7749 8.00998C16.2655 7.90169 15.0622 6.72585 14.9052 5.2303C14.8929 5.11228 14.8374 5.00299 14.7493 4.92353C14.6611 4.84406 14.5467 4.80005 14.428 4.79998H12.5005ZM12.9796 5.75998H14.0746C14.4235 7.34336 15.6608 8.5509 17.2602 8.85373V10.229C16.2336 10.1769 15.3318 9.66476 14.8012 8.85748C14.7444 8.77109 14.6613 8.70533 14.5641 8.66997C14.467 8.63462 14.361 8.63157 14.262 8.66128C14.163 8.69098 14.0762 8.75185 14.0146 8.83484C13.953 8.91782 13.9198 9.01849 13.9199 9.12186V14.6587C13.9199 16.6596 12.3077 18.2719 10.3068 18.2719C8.30593 18.2719 6.69367 16.6596 6.69367 14.6587C6.69367 12.7385 8.19164 11.2143 10.0799 11.0915V12.1359C8.7774 12.2571 7.73805 13.3259 7.73805 14.6587C7.73805 16.072 8.89358 17.2284 10.3068 17.2284C11.7128 17.2284 12.9599 16.1215 12.9599 14.685C12.9599 14.7085 12.9608 14.0811 12.9627 13.1972C12.9646 12.3133 12.9677 11.1393 12.9702 9.96655C12.9747 7.86083 12.9787 6.1676 12.9796 5.75998Z" />
</svg>
